<svg xmlns="http://www.w3.org/2000/svg" xmlns:xlink="http://www.w3.org/1999/xlink" width="100.083" height="97.418" viewBox="0 0 100.083 97.418">
  <defs>
    <linearGradient id="linear-gradient" x1="0.5" x2="0.5" y2="1" gradientUnits="objectBoundingBox">
      <stop offset="0" stop-color="#62cbac"/>
      <stop offset="1" stop-color="#00040e"/>
    </linearGradient>
    <linearGradient id="linear-gradient-2" x1="0.5" x2="0.5" y2="1" gradientUnits="objectBoundingBox">
      <stop offset="0" stop-color="#62cbac"/>
      <stop offset="1" stop-color="#316656"/>
    </linearGradient>
  </defs>
  <g id="Group_11231" data-name="Group 11231" transform="translate(-290.104 -419.342)">
    <path id="Path_114" data-name="Path 114" d="M131.158,58.77H112.846V50.211a4.048,4.048,0,0,0-4.046-4.046H63.116a4.048,4.048,0,0,0-4.046,4.046v13.1H40.182a1.693,1.693,0,0,0-1.682,1.7v15.96a1.693,1.693,0,0,0,1.682,1.7H59.07v8.961H40.182a1.693,1.693,0,0,0-1.682,1.7v29.53a1.693,1.693,0,0,0,1.682,1.7H59.07v7.616a4.048,4.048,0,0,0,4.046,4.046H108.8a4.048,4.048,0,0,0,4.046-4.046V112.3h8.272a2.252,2.252,0,0,0,2.24-2.264V99.212a2.252,2.252,0,0,0-2.24-2.264h-8.272V85.32h18.312a2.256,2.256,0,0,0,2.256-2.256V61.026A2.256,2.256,0,0,0,131.158,58.77Z" transform="translate(252.729 374.689)" opacity="0.1" fill="url(#linear-gradient)"/>
    <path id="Path_115" data-name="Path 115" d="M183.732,71.2v81.961a4.048,4.048,0,0,1-4.046,4.046H134a4.048,4.048,0,0,1-4.046-4.046V71.2A4.048,4.048,0,0,1,134,67.158h45.683a4.048,4.048,0,0,1,4.045,4.046Z" transform="translate(181.845 358.418)" fill="#fff"/>
    <path id="Path_116" data-name="Path 116" d="M183.734,90.465V71.227a4.048,4.048,0,0,0-4.025-4.068H133.98a4.046,4.046,0,0,0-4.025,4.068V90.465Z" transform="translate(181.843 358.421)" fill="url(#linear-gradient-2)"/>
    <path id="Path_117" data-name="Path 117" d="M204.1,72.737l1.8-5.579H170.238l1.8,5.579a1.943,1.943,0,0,0,1.846,1.355h28.37A1.943,1.943,0,0,0,204.1,72.737Z" transform="translate(150.619 358.422)" fill="#fff"/>
    <g id="Group_11" data-name="Group 11" transform="translate(310.672 424.458)">
      <path id="Path_118" data-name="Path 118" d="M198.375,71.341H170a3.06,3.06,0,0,1-2.916-2.134l-1.8-5.579a1.125,1.125,0,1,1,2.141-.689l1.8,5.579a.817.817,0,0,0,.776.575h28.37a.818.818,0,0,0,.776-.575l1.8-5.579a1.125,1.125,0,1,1,2.141.689l-1.8,5.579a3.06,3.06,0,0,1-2.919,2.134Z" transform="translate(-156.177 -62.158)" fill="url(#linear-gradient)"/>
      <path id="Path_119" data-name="Path 119" d="M175.806,383.55H130.123a5.176,5.176,0,0,1-5.165-5.165v-7.028a1.124,1.124,0,0,1,2.249,0v7.028a2.925,2.925,0,0,0,2.922,2.922h45.684a2.926,2.926,0,0,0,2.922-2.922V358.848a1.124,1.124,0,1,1,2.249,0v19.537a5.176,5.176,0,0,1-5.176,5.165Z" transform="translate(-124.952 -291.248)" fill="url(#linear-gradient)"/>
      <path id="Path_120" data-name="Path 120" d="M365.191,251.378a1.124,1.124,0,0,1-1.124-1.124V239.462a1.124,1.124,0,0,1,2.249,0v10.8A1.124,1.124,0,0,1,365.191,251.378Z" transform="translate(-310.29 -198.714)" fill="url(#linear-gradient)"/>
      <path id="Path_121" data-name="Path 121" d="M126.078,80.875a1.124,1.124,0,0,1-1.124-1.124V67.328a5.176,5.176,0,0,1,5.165-5.165H175.8a5.176,5.176,0,0,1,5.165,5.165V75.39a1.124,1.124,0,0,1-2.249,0V67.328a2.926,2.926,0,0,0-2.922-2.922H130.125a2.926,2.926,0,0,0-2.922,2.922V79.749a1.124,1.124,0,0,1-1.124,1.126Z" transform="translate(-124.954 -62.159)" fill="url(#linear-gradient)"/>
      <path id="Path_122" data-name="Path 122" d="M126.078,237.9a1.124,1.124,0,0,1-1.124-1.124v-8.309a1.124,1.124,0,1,1,2.249,0v8.314A1.124,1.124,0,0,1,126.078,237.9Z" transform="translate(-124.954 -190.187)" fill="url(#linear-gradient)"/>
    </g>
    <path id="Path_156" data-name="Path 156" d="M10.073,0A10.129,10.129,0,0,1,20.145,10.182,10.129,10.129,0,0,1,10.073,20.363,10.129,10.129,0,0,1,0,10.182,10.129,10.129,0,0,1,10.073,0Z" transform="translate(328.612 454.748)" fill="url(#linear-gradient)"/>
    <path id="Path_123" data-name="Path 123" d="M238.37,224.476a4.039,4.039,0,1,0-5.559,0,4.071,4.071,0,0,0-1.259,2.951,1.124,1.124,0,1,0,2.249,0,1.79,1.79,0,1,1,3.58,0,1.124,1.124,0,0,0,2.249,0,4.07,4.07,0,0,0-1.26-2.951Zm-4.574-2.951a8.73,8.73,0,1,0,.006,0Z" transform="translate(103.095 241.927)" fill="#fff"/>
    <path id="Path_124" data-name="Path 124" d="M227.317,318.408h-14.9a1.16,1.16,0,0,1,0-2.318h14.9a1.16,1.16,0,0,1,0,2.318Z" transform="translate(118.821 165.476)" fill="url(#linear-gradient)"/>
    <path id="Path_125" data-name="Path 125" d="M237.175,337.524h-6.847a1.16,1.16,0,0,1,0-2.318h6.847a1.16,1.16,0,0,1,0,2.318Z" transform="translate(104.934 150.658)" fill="url(#linear-gradient)"/>
    <ellipse id="Ellipse_11" data-name="Ellipse 11" cx="1.251" cy="1.265" rx="1.251" ry="1.265" transform="translate(341.219 499.838)" fill="url(#linear-gradient)"/>
    <path id="Path_126" data-name="Path 126" d="M245.2,397.337a1.265,1.265,0,1,1-1.251,1.265A1.265,1.265,0,0,1,245.2,397.337Z" transform="translate(93.489 102.501)" fill="url(#linear-gradient)"/>
    <ellipse id="Ellipse_12" data-name="Ellipse 12" cx="1.251" cy="1.265" rx="1.251" ry="1.265" transform="translate(333.649 499.838)" fill="url(#linear-gradient)"/>
    <path id="Path_127" data-name="Path 127" d="M354.834,308.281H342.272a2.252,2.252,0,0,1-2.24-2.264V295.2a2.252,2.252,0,0,1,2.24-2.265h12.562a2.252,2.252,0,0,1,2.24,2.265v10.821a2.252,2.252,0,0,1-2.24,2.264Z" transform="translate(19.013 183.425)" fill="#fff"/>
    <path id="Path_128" data-name="Path 128" d="M350.958,305.534H338.4a3.381,3.381,0,0,1-3.364-3.394V291.32a3.381,3.381,0,0,1,3.364-3.394h12.562a3.381,3.381,0,0,1,3.364,3.394v10.821a3.381,3.381,0,0,1-3.364,3.394ZM338.4,290.188a1.129,1.129,0,0,0-1.116,1.139v10.821a1.129,1.129,0,0,0,1.116,1.139h12.562a1.129,1.129,0,0,0,1.116-1.139V291.327a1.129,1.129,0,0,0-1.116-1.139Z" transform="translate(22.888 187.295)" fill="url(#linear-gradient)"/>
    <path id="Path_129" data-name="Path 129" d="M367.289,317.621a1.106,1.106,0,0,1-.549-.148,1.139,1.139,0,0,1-.425-1.542l3.044-5.449a1.114,1.114,0,0,1,1.526-.429,1.138,1.138,0,0,1,.425,1.542l-3.044,5.449A1.118,1.118,0,0,1,367.289,317.621Z" transform="translate(-1.248 170.269)" fill="url(#linear-gradient)"/>
    <path id="Path_130" data-name="Path 130" d="M64.43,162.737H40.183a1.693,1.693,0,0,1-1.682-1.7V145.087a1.693,1.693,0,0,1,1.682-1.7H64.43a1.693,1.693,0,0,1,1.682,1.7V161.04A1.693,1.693,0,0,1,64.43,162.737Z" transform="translate(252.729 299.338)" fill="#fff"/>
    <path id="Path_131" data-name="Path 131" d="M60.555,159.991H36.3a2.82,2.82,0,0,1-2.8-2.826V141.211a2.82,2.82,0,0,1,2.8-2.826H60.555a2.82,2.82,0,0,1,2.8,2.826v15.954A2.82,2.82,0,0,1,60.555,159.991ZM36.3,140.635a.568.568,0,0,0-.558.577v15.954a.568.568,0,0,0,.558.577H60.555a.568.568,0,0,0,.558-.577V141.211a.568.568,0,0,0-.558-.577Z" transform="translate(256.604 303.214)" fill="url(#linear-gradient)"/>
    <path id="Path_132" data-name="Path 132" d="M63.49,176.993a1.108,1.108,0,0,1-.791-.332l-2.693-2.721a1.139,1.139,0,0,1,0-1.6l2.693-2.722a1.11,1.11,0,0,1,1.582,0,1.139,1.139,0,0,1,0,1.6l-1.9,1.918,1.9,1.918a1.139,1.139,0,0,1,0,1.6,1.108,1.108,0,0,1-.791.339Z" transform="translate(236.314 279.263)" fill="url(#linear-gradient)"/>
    <path id="Path_133" data-name="Path 133" d="M119.294,169.287a1.108,1.108,0,0,1,.791.331l2.693,2.723a1.139,1.139,0,0,1,0,1.6l-2.693,2.723a1.11,1.11,0,0,1-1.582,0,1.139,1.139,0,0,1,0-1.6l1.9-1.918-1.9-1.918a1.139,1.139,0,0,1,0-1.6A1.108,1.108,0,0,1,119.294,169.287Z" transform="translate(190.973 279.263)" fill="url(#linear-gradient)"/>
    <path id="Path_134" data-name="Path 134" d="M89.269,176.993a1.106,1.106,0,0,1-.549-.148A1.138,1.138,0,0,1,88.3,175.3l3.041-5.444a1.113,1.113,0,0,1,1.524-.429,1.138,1.138,0,0,1,.424,1.541l-3.041,5.443a1.117,1.117,0,0,1-.975.577Z" transform="translate(214.245 279.263)" fill="url(#linear-gradient)"/>
    <path id="Path_135" data-name="Path 135" d="M64.43,302.233H40.183a1.693,1.693,0,0,1-1.682-1.7V271a1.693,1.693,0,0,1,1.682-1.7H64.43a1.693,1.693,0,0,1,1.682,1.7v29.53a1.693,1.693,0,0,1-1.682,1.7Z" transform="translate(252.729 201.743)" fill="#fff"/>
    <path id="Path_136" data-name="Path 136" d="M60.555,299.482H36.3a2.82,2.82,0,0,1-2.8-2.826v-29.53a2.82,2.82,0,0,1,2.8-2.826h12.72a1.124,1.124,0,1,1,0,2.249H36.3a.568.568,0,0,0-.558.577v29.53a.568.568,0,0,0,.558.577H60.555a.568.568,0,0,0,.558-.577v-29.53a.568.568,0,0,0-.558-.577H55.192a1.124,1.124,0,1,1,0-2.249h5.361a2.82,2.82,0,0,1,2.8,2.826v29.53a2.82,2.82,0,0,1-2.8,2.826Z" transform="translate(256.604 205.619)" fill="url(#linear-gradient)"/>
    <path id="Path_137" data-name="Path 137" d="M348.431,149.731H321.074a2.256,2.256,0,0,1-2.256-2.256V125.439a2.256,2.256,0,0,1,2.256-2.256h27.356a2.256,2.256,0,0,1,2.256,2.256v22.035a2.256,2.256,0,0,1-2.256,2.256Z" transform="translate(35.456 314.998)" fill="#fff"/>
    <path id="Path_138" data-name="Path 138" d="M424.19,123.183h-7.647v26.548h7.647a2.256,2.256,0,0,0,2.244-2.268V125.451a2.256,2.256,0,0,0-2.244-2.268Z" transform="translate(-40.291 314.998)" fill="#fff"/>
    <path id="Path_139" data-name="Path 139" d="M350.687,130.586v-5.135a2.256,2.256,0,0,0-2.244-2.268h-27.38a2.256,2.256,0,0,0-2.244,2.268v5.135Z" transform="translate(35.456 314.998)" fill="#fff"/>
    <g id="Group_12" data-name="Group 12" transform="translate(297.346 437.055)">
      <path id="Path_140" data-name="Path 140" d="M344.567,146.983H317.186a3.385,3.385,0,0,1-3.369-3.394V121.576a3.385,3.385,0,0,1,3.369-3.394h27.381a3.385,3.385,0,0,1,3.369,3.394v5.141a1.124,1.124,0,1,1-2.249,0v-5.141a1.133,1.133,0,0,0-1.12-1.144H317.186a1.133,1.133,0,0,0-1.12,1.144v22.013a1.133,1.133,0,0,0,1.12,1.144h27.381a1.133,1.133,0,0,0,1.12-1.144V132.951a1.124,1.124,0,0,1,2.249,0v10.638A3.385,3.385,0,0,1,344.567,146.983Z" transform="translate(-258.015 -118.182)" fill="url(#linear-gradient)"/>
      <path id="Path_141" data-name="Path 141" d="M346.813,153.377H314.939a1.124,1.124,0,0,1,0-2.249h31.873a1.124,1.124,0,0,1,0,2.249Z" transform="translate(-258.016 -143.717)" fill="url(#linear-gradient)"/>
      <path id="Path_142" data-name="Path 142" d="M354.281,209.862H343.152a1.134,1.134,0,0,1,0-2.268h11.129a1.134,1.134,0,0,1,0,2.268Z" transform="translate(-279.883 -187.484)" fill="url(#linear-gradient)"/>
      <path id="Path_143" data-name="Path 143" d="M348.222,188.931h-5.07a1.134,1.134,0,0,1,0-2.268h5.07a1.134,1.134,0,0,1,0,2.268Z" transform="translate(-279.883 -171.261)" fill="url(#linear-gradient)"/>
      <path id="Path_144" data-name="Path 144" d="M79.987,337.018H66.873a1.133,1.133,0,0,1,0-2.267H79.987a1.133,1.133,0,0,1,0,2.267Z" transform="translate(-65.74 -286.044)" fill="url(#linear-gradient)"/>
      <path id="Path_145" data-name="Path 145" d="M86.561,310.071H78.817a1.133,1.133,0,1,1,0-2.267h7.744a1.133,1.133,0,1,1,0,2.267Z" transform="translate(-74.998 -265.157)" fill="url(#linear-gradient)"/>
      <path id="Path_146" data-name="Path 146" d="M79.987,354.911H66.873a1.133,1.133,0,1,1,0-2.267H79.987a1.133,1.133,0,1,1,0,2.267Z" transform="translate(-65.74 -299.913)" fill="url(#linear-gradient)"/>
      <path id="Path_147" data-name="Path 147" d="M79.987,372.8H66.873a1.133,1.133,0,0,1,0-2.267H79.987a1.133,1.133,0,0,1,0,2.267Z" transform="translate(-65.74 -313.781)" fill="url(#linear-gradient)"/>
    </g>
    <path id="Path_148" data-name="Path 148" d="M450.149,361.686a1.124,1.124,0,0,1-.8-.333l-2.467-2.494a1.124,1.124,0,0,1,0-1.582l2.467-2.494a1.126,1.126,0,0,1,1.6,0l2.467,2.494a1.124,1.124,0,0,1,0,1.582l-2.467,2.494a1.126,1.126,0,0,1-.8.334Zm-.885-3.618.885.9.885-.9-.885-.9Z" transform="translate(-63.555 135.743)" fill="url(#linear-gradient)"/>
    <path id="Path_149" data-name="Path 149" d="M399.787,389.889a1.125,1.125,0,0,1-.8-.333l-2.467-2.494a1.124,1.124,0,0,1,0-1.582l2.467-2.494a1.125,1.125,0,0,1,1.6,0l2.467,2.494a1.124,1.124,0,0,1,0,1.582l-2.467,2.494a1.126,1.126,0,0,1-.8.334Zm-.885-3.618.885.9.885-.9-.885-.9Z" transform="translate(-24.52 113.885)" fill="url(#linear-gradient)"/>
    <path id="Path_150" data-name="Path 150" d="M76.938,97.73a1.124,1.124,0,0,1-1.124-1.124,1.353,1.353,0,0,0-1.338-1.365,1.124,1.124,0,1,1,0-2.249,1.353,1.353,0,0,0,1.338-1.365,1.124,1.124,0,1,1,2.249,0A1.353,1.353,0,0,0,79.4,92.991a1.124,1.124,0,1,1,0,2.249,1.353,1.353,0,0,0-1.338,1.365,1.124,1.124,0,0,1-1.124,1.124Z" transform="translate(225.717 340.333)" fill="url(#linear-gradient)"/>
    <path id="Path_151" data-name="Path 151" d="M95.225,46.646A1.124,1.124,0,0,1,94.1,45.521a1.353,1.353,0,0,0-1.338-1.365,1.124,1.124,0,1,1,0-2.249A1.353,1.353,0,0,0,94.1,40.542a1.124,1.124,0,0,1,2.249,0,1.353,1.353,0,0,0,1.338,1.365,1.124,1.124,0,1,1,0,2.249,1.353,1.353,0,0,0-1.338,1.365,1.124,1.124,0,0,1-1.124,1.124Z" transform="translate(211.543 379.924)" fill="url(#linear-gradient)"/>
  </g>
</svg>
