<svg xmlns="http://www.w3.org/2000/svg" width="91.612" height="42.263" viewBox="0 0 91.612 42.263">
  <g id="Group_10431" data-name="Group 10431" opacity="0.81" style="mix-blend-mode: luminosity;isolation: isolate">
    <path id="Path_2276" data-name="Path 2276" d="M2973.341,729.979a6.008,6.008,0,0,1,2.274-2.191,3.282,3.282,0,0,0,1.111-.962c.711-.9,1.361-1.85,2.032-2.783a.574.574,0,0,0,.109-.364,27.554,27.554,0,0,0-2.279,2.48l-.09-.072,2.056-2.7-.125-.129a2.456,2.456,0,0,0-.375.3c-.553.647-1.095,1.3-1.642,1.955-.085.1-.177.2-.266.3l-.1-.081,2.061-2.708-.171-.139-2.225,2.546-.09-.067,2.01-2.646-.109-.1a4.66,4.66,0,0,0-.354.3c-.668.7-1.323,1.4-2,2.091a3.542,3.542,0,0,0-1.018,1.922,3.193,3.193,0,0,1-1.07,1.82c-.037-1-.362-1.947.419-2.712,1.544-1.513.929-3.716-.139-4.923-.455-.514-.836-.524-1.274.009a3.728,3.728,0,0,0-.818,3.942,2.4,2.4,0,0,0,.524.767,2.2,2.2,0,0,1,.646,1.9c-.037.323-.048.648-.071.973l-.125.106a1.356,1.356,0,0,0-.14-.285q-2.149-2.613-4.311-5.214a1.445,1.445,0,0,0-.45-.244c-.071.171-.208.344-.2.511a4.247,4.247,0,0,0,1.018,2.385,10.915,10.915,0,0,0,2.58,2.623,8.646,8.646,0,0,1,1.319,1.353l-1.959,2.261c-.362.418-.74.824-1.084,1.256a.833.833,0,0,1-.731.327c-2.908-.009-5.817-.014-8.726.005-.425,0-.576-.136-.6-.545-.339-6.008,2.1-10.539,7.321-13.494a12.731,12.731,0,0,1,8.9-1.381,13.506,13.506,0,0,1,10.485,8.739,12.84,12.84,0,0,1,.825,6.22c-.034.323-.147.46-.5.458-2.923-.013-5.846,0-8.769-.013a.753.753,0,0,1-.5-.15C2975.584,732.426,2974.475,731.211,2973.341,729.979Z" transform="translate(-2926.919 -716.451)" fill="#fb6a3b"/>
    <path id="Path_2277" data-name="Path 2277" d="M3314.571,1160.809q-7.4,0-14.808.007c-.375,0-.554-.073-.511-.489a5.334,5.334,0,0,0,0-1.02c-.035-.387.123-.479.487-.477,2.326.013,4.653.006,6.979.006q11.3,0,22.6-.007c.416,0,.617.09.555.538a4.7,4.7,0,0,0,0,.6c-.01.989.1.843-.825.844Q3321.8,1160.814,3314.571,1160.809Z" transform="translate(-3238.267 -1119.654)" fill="#fb6a3b"/>
    <path id="Path_2278" data-name="Path 2278" d="M2598.367,1158.87h14.723c.575,0,.575,0,.575.587,0,.355-.007.71,0,1.064.008.241-.095.332-.329.324-.283-.01-.567,0-.851,0h-28.766c-.665,0-.665,0-.664-.666,0-.3.016-.6,0-.894-.021-.316.1-.42.417-.418,1.574.011,3.149,0,4.723,0h10.17Z" transform="translate(-2583.051 -1119.687)" fill="#fb6a3b"/>
    <path id="Path_2279" data-name="Path 2279" d="M2589.846,972.6c.145.069.213.109.288.136,1.587.572,2.071,1.838,1.7,3.465-.366,1.586-1.606,2.165-3.06,2.312-1.124.114-2.263.081-3.4.1-.61.012-1.221-.025-1.829.016-.449.03-.594-.14-.532-.556a.55.55,0,0,0,0-.17c-.062-.4.075-.6.517-.606a.5.5,0,0,0,.511-.562c-.008-2.5-.023-4.993-.027-7.49,0-.3-.155-.422-.417-.394-.509.053-.606-.222-.565-.641a2.5,2.5,0,0,0,0-.383c-.014-.241.1-.322.332-.322,1.744.007,3.491-.054,5.232.03a2.627,2.627,0,0,1,1.622,4.786C2590.109,972.4,2590,972.483,2589.846,972.6Zm-3.872,2.749h.045c0,.5-.012.992.009,1.487,0,.1.135.284.2.282a16.189,16.189,0,0,0,2.444-.164c.863-.167,1.218-.8,1.182-1.757a1.485,1.485,0,0,0-1.3-1.587c-.723-.106-1.466-.069-2.2-.111-.311-.018-.391.128-.384.4C2585.982,974.383,2585.974,974.865,2585.974,975.347Zm.967-3.217c.337-.03.676-.047,1.01-.094a2.133,2.133,0,0,0,.524-.161,1.568,1.568,0,0,0,.866-1.762,1.265,1.265,0,0,0-1.255-1.111c-.562-.05-1.128-.041-1.692-.076-.362-.023-.464.144-.452.48.02.579.008,1.16.014,1.74C2585.971,972.262,2585.836,972.092,2586.941,972.13Z" transform="translate(-2583 -944.608)" fill="#fb6a3b"/>
    <path id="Path_2280" data-name="Path 2280" d="M3425.452,969.562c.907.517,1.068,1.519,1.514,2.341a5.024,5.024,0,0,1,.335.734c.154.445.377.744.92.661.084-.013.289.19.291.3.023,1.209.176,1-.894,1.017-.908.013-1.816,0-2.724.016-.324.006-.482-.094-.436-.44a1.874,1.874,0,0,0,0-.425c-.026-.274.053-.4.363-.43.517-.045.621-.272.395-.757-.257-.552-.522-1.1-.785-1.65a1.085,1.085,0,0,0-1.107-.7c-.382.02-.766.015-1.149,0-.282-.01-.417.082-.411.386.014.766.009,1.532.01,2.3,0,.2.035.354.292.375s.674.018.74.157a1.985,1.985,0,0,1,.053.957.394.394,0,0,1-.3.241c-1.149.019-2.3.023-3.447,0-.107,0-.255-.168-.3-.29a1.8,1.8,0,0,1-.019-.463c-.036-.366.08-.555.49-.549.375.006.558-.23.557-.606-.009-2.469-.022-4.938-.018-7.407,0-.341-.179-.384-.443-.418-.181-.024-.494-.094-.5-.177a5.032,5.032,0,0,1,.013-1.094c0-.036.2-.08.3-.08,1.631,0,3.264-.047,4.893.019a5.943,5.943,0,0,1,1.921.47,2.306,2.306,0,0,1,1.376,2.133,3.053,3.053,0,0,1-1.715,3.193,1.272,1.272,0,0,0-.144.089A.538.538,0,0,0,3425.452,969.562Zm-3.693-2.68h.007c0,.5.007.992,0,1.488,0,.242.074.378.336.372.5-.01.993.009,1.486-.024,1.525-.1,2.036-1.129,1.745-2.572a1.054,1.054,0,0,0-.93-.922c-.769-.093-1.546-.117-2.321-.167-.234-.015-.326.107-.323.338C3421.764,965.89,3421.759,966.386,3421.759,966.882Z" transform="translate(-3347.634 -940.996)" fill="#fb6a3b"/>
    <path id="Path_2281" data-name="Path 2281" d="M3546.141,973.674c-.809,0-1.618-.009-2.426,0-.316.005-.494-.076-.442-.43a1.174,1.174,0,0,0,0-.34c-.052-.351.062-.524.446-.531.407-.007.594-.237.592-.663q-.023-3.661-.019-7.322c0-.3-.057-.5-.419-.466-.409.035-.572-.142-.556-.575.036-.922-.064-.8.8-.8,1.4,0,2.812-.06,4.212.019a6.79,6.79,0,0,1,2.216.508,4.149,4.149,0,0,1,2.522,3.791,8.26,8.26,0,0,1-.453,3.851,4.522,4.522,0,0,1-4.088,2.916c-.787.075-1.587.012-2.382.012Zm.08-5.56h.057c0,1.219.006,2.438,0,3.657,0,.293.1.408.393.4.51-.018,1.021.012,1.53-.017a2.71,2.71,0,0,0,2.479-1.646,6.218,6.218,0,0,0,.284-4.038,2.755,2.755,0,0,0-2.8-2.379c-.478-.042-.963,0-1.444-.03-.4-.021-.506.145-.5.527C3546.235,965.762,3546.221,966.938,3546.221,968.115Z" transform="translate(-3461.508 -940.064)" fill="#fb6a3b"/>
    <path id="Path_2282" data-name="Path 2282" d="M2838.517,970.843c0,.922-.016,1.845,0,2.767a3.262,3.262,0,0,1-2.968,3.408,6.372,6.372,0,0,1-2.953-.08,2.968,2.968,0,0,1-2.371-3.075c-.049-2.057-.068-4.114-.073-6.172,0-.392-.128-.561-.5-.522-.394.041-.469-.145-.461-.5.024-.984-.1-.819.84-.834.894-.014,1.788,0,2.682-.02.324-.007.486.09.441.435a1.2,1.2,0,0,0,0,.3c.042.347-.04.566-.453.576-.436.011-.6.268-.595.7.019,1.859.005,3.718.025,5.577a1.884,1.884,0,0,0,2.147,2.11,3.942,3.942,0,0,0,1.536-.389,1.435,1.435,0,0,0,.8-1.364c.009-2.072,0-4.143.009-6.215,0-.3-.115-.426-.4-.391-.432.053-.6-.1-.585-.562.028-.955-.049-.811.827-.821.894-.01,1.788.005,2.681-.011.3-.005.425.09.394.388a1.462,1.462,0,0,0,0,.3c.038.384-.012.649-.514.648-.358,0-.525.254-.519.639.016,1.036.005,2.072.005,3.107Z" transform="translate(-2808.232 -943.024)" fill="#fb6a3b"/>
    <path id="Path_2283" data-name="Path 2283" d="M2712.807,970.13a8.432,8.432,0,0,1-.568,3.079,4.292,4.292,0,0,1-3.31,2.635,5.457,5.457,0,0,1-2.648-.125,4.091,4.091,0,0,1-2.823-2.779,8.157,8.157,0,0,1,.047-5.5,4.518,4.518,0,0,1,3.872-2.979,4.408,4.408,0,0,1,4.068,1.355,4.97,4.97,0,0,1,1.223,2.8C2712.738,969.112,2712.762,969.622,2712.807,970.13Zm-2,.124a13.438,13.438,0,0,0-.14-1.392,3.972,3.972,0,0,0-.877-2.086,2.633,2.633,0,0,0-4.248.763,6.444,6.444,0,0,0,.048,5.4,2.484,2.484,0,0,0,2.771,1.366,2.239,2.239,0,0,0,1.97-1.518A6.732,6.732,0,0,0,2710.812,970.254Z" transform="translate(-2692.787 -941.774)" fill="#fb6a3b"/>
    <path id="Path_2284" data-name="Path 2284" d="M3285.88,965.429c-.1-.023-.141-.035-.182-.042-1.023-.16-.832.075-.835-1.023a.422.422,0,0,1,.281-.3c1.077-.036,2.156-.057,3.233-.039.139,0,.341.229.4.393.513,1.381,1,2.772,1.5,4.159.572,1.6,1.154,3.2,1.714,4.8a.519.519,0,0,0,.614.382c.372-.033.492.121.482.492-.026.96.114.839-.832.846-.979.007-1.958-.009-2.936.018-.383.011-.522-.12-.47-.488a.883.883,0,0,0,0-.255c-.059-.375.1-.524.475-.567.651-.075.7-.16.479-.8-.36-1.027-.083-.863-1.166-.868-.908,0-1.816.017-2.724.009a.487.487,0,0,0-.552.4c-.073.273-.178.537-.272.8s-.056.431.285.435c.2,0,.552.05.563.121a4.933,4.933,0,0,1,.01,1.1c0,.045-.185.11-.286.112-1.035.024-2.071.033-3.106.055-.256.005-.368-.094-.348-.351a2.064,2.064,0,0,0,0-.383c-.038-.356.024-.561.467-.619a.952.952,0,0,0,.6-.565c.873-2.485,1.712-4.983,2.557-7.478A2.283,2.283,0,0,0,3285.88,965.429Zm3.245,5.255-1.558-4.838-.157.015-1.546,4.823Z" transform="translate(-3222.665 -941.427)" fill="#fb6a3b"/>
    <path id="Path_2285" data-name="Path 2285" d="M3073.094,976.037c-1.177,0-2.355-.009-3.533.006-.312,0-.452-.09-.414-.411a1.644,1.644,0,0,0,0-.383c-.045-.364.061-.542.474-.536.355,0,.562-.211.56-.6q-.014-3.7-.01-7.408c0-.339-.141-.478-.456-.443-.446.051-.588-.121-.563-.573.044-.8-.144-.772.782-.777q3.149-.018,6.3-.036c.551,0,.552,0,.558.568.006.6,0,1.193.021,1.788.01.276-.087.388-.363.388a7.881,7.881,0,0,0-.892.048c-.253.029-.383-.036-.357-.313a3.236,3.236,0,0,0,0-.383.418.418,0,0,0-.449-.458c-.781-.007-1.562-.013-2.341.013a.425.425,0,0,0-.291.3c-.022.78,0,1.561-.008,2.341,0,.333.212.349.457.348.979,0,1.959.016,2.937-.02.427-.016.528.128.524.527-.01,1.089.005,1.089-1.1,1.09-.794,0-1.589.016-2.384,0-.317-.006-.433.114-.428.419q.022,1.234.021,2.469c0,.287.108.405.4.4.738-.017,1.476,0,2.213-.021.593-.014.684-.117.687-.713,0-.734,0-.642.655-.621,1.08.036.931-.129.95.969.009.5-.007.994.019,1.49.018.361-.1.507-.479.5-1.163-.019-2.327-.007-3.49-.007C3073.094,976.006,3073.094,976.022,3073.094,976.037Z" transform="translate(-3027.75 -942.21)" fill="#fb6a3b"/>
    <path id="Path_2286" data-name="Path 2286" d="M3173.293,973.258c.117-.34.241-.678.351-1.02q.931-2.914,1.857-5.829c.169-.531.145-.591-.419-.6-.356,0-.461-.14-.454-.482.022-1.012-.1-.846.86-.859.823-.011,1.646,0,2.468-.015.31-.007.451.1.423.416a2,2,0,0,0,0,.383c.033.307-.068.5-.4.5-.4,0-.558.262-.67.6q-1.481,4.41-2.966,8.819a.5.5,0,0,1-.577.419,13.011,13.011,0,0,0-1.318,0,.431.431,0,0,1-.5-.333c-.946-2.67-1.908-5.335-2.866-8-.081-.227-.18-.449-.24-.681-.123-.477-.311-.841-.908-.775-.088.01-.264-.161-.284-.269a2.827,2.827,0,0,1-.019-.8.357.357,0,0,1,.263-.224q1.851-.027,3.7-.007c.094,0,.242.165.265.274a4.5,4.5,0,0,1,.016.636c.018.28-.121.365-.379.388-.7.062-.8.227-.569.9q1,2.958,1.992,5.918c.074.22.172.431.258.647Z" transform="translate(-3117.839 -941.828)" fill="#fb6a3b"/>
    <path id="Path_2287" data-name="Path 2287" d="M2966.238,965.784a6.948,6.948,0,0,1-.015.975.451.451,0,0,1-.32.286c-.667.058-.736.4-.732.923.019,2.284.043,4.567.049,6.851,0,.334.1.445.436.434.765-.024,1.532-.024,2.3-.009.412.008.56-.2.564-.569,0-.284.011-.568,0-.851-.007-.227.1-.307.309-.288.338.03.682.034,1.014.1a.405.405,0,0,1,.252.295c.023.879.015,1.759.023,2.638,0,.246-.125.312-.347.312q-3.6,0-7.191.016c-.25,0-.375-.078-.353-.341a1.855,1.855,0,0,0,0-.383c-.053-.4.079-.6.523-.6.4,0,.534-.23.531-.711q-.018-3.043-.034-6.085c0-.383-.018-.767,0-1.149.014-.31-.063-.473-.418-.47-.173,0-.483-.106-.5-.2a5.353,5.353,0,0,1,.015-1.091c0-.031.147-.074.226-.074C2963.757,965.783,2964.946,965.784,2966.238,965.784Z" transform="translate(-2929.926 -943.044)" fill="#fb6a3b"/>
    <path id="Path_2288" data-name="Path 2288" d="M2938.069,716.036a2.136,2.136,0,0,1-.073-.312,15.274,15.274,0,0,1,6.481-14.176,14.323,14.323,0,0,1,10.107-2.791c6.711.663,11.223,4.26,13.559,10.56a13.989,13.989,0,0,1,.7,6.373c-.011.1-.137.192-.211.287-.083-.106-.236-.211-.238-.319-.016-.863.049-1.73-.009-2.589a14.433,14.433,0,0,0-4.918-10.049,14.613,14.613,0,0,0-9.24-3.82,15.026,15.026,0,0,0-15.288,11.008,16.427,16.427,0,0,0-.469,5.4C2938.491,715.982,2938.5,715.982,2938.069,716.036Z" transform="translate(-2907.73 -698.681)" fill="#fb6a3b"/>
    <path id="Path_2289" data-name="Path 2289" d="M3202.669,1150.037c.186.367.345.712.534,1.039a3.436,3.436,0,0,0,.344.379.485.485,0,0,1,.131.268c0,.057-.124.156-.2.16a8.43,8.43,0,0,1-.934,0,.279.279,0,0,1-.209-.147.344.344,0,0,1,.068-.263.772.772,0,0,0-.21-1c-.192-.154-.539-.122-.819-.15-.031,0-.122.163-.11.239.051.332-.236.8.343.936-.04.13-.069.368-.123.374a6.66,6.66,0,0,1-1.018.011.264.264,0,0,1-.193-.164c-.014-.075.043-.225.1-.243.287-.089.245-.313.246-.521,0-.638.009-1.275,0-1.913-.006-.275.124-.618-.281-.751.043-.115.087-.328.13-.328.677,0,1.356.01,2.031.06a.792.792,0,0,1,.738.66,1.075,1.075,0,0,1-.281,1.093C3202.856,1149.876,3202.749,1149.965,3202.669,1150.037Zm-1.417-.95c0,.718.006.726.443.727.629,0,.939-.232.95-.715s-.274-.667-.945-.7C3201.112,1148.376,3201.278,1148.78,3201.252,1149.087Z" transform="translate(-3147.723 -1109.715)" fill="#fb6a3b"/>
    <path id="Path_2290" data-name="Path 2290" d="M3119.047,1149.927c.183.373.332.708.511,1.026a3.734,3.734,0,0,0,.338.4c.061.079.147.187.131.264a.3.3,0,0,1-.23.17,6.1,6.1,0,0,1-.849,0c-.095-.006-.238-.07-.262-.14a.3.3,0,0,1,.106-.276c.243-.108.16-.257.1-.418-.282-.7-.468-.855-.979-.762-.1.018-.252.171-.244.247.035.339-.223.78.294.983.038.015.064.176.031.231a.32.32,0,0,1-.226.134,7.7,7.7,0,0,1-.891,0c-.088-.006-.225-.085-.242-.153s.07-.184.119-.274c.079-.145.232-.285.237-.43.023-.764.02-1.53,0-2.295,0-.138-.146-.27-.215-.41a.485.485,0,0,1-.077-.256c.009-.05.127-.115.2-.115.649.009,1.3.007,1.948.057a.79.79,0,0,1,.764.634,1.09,1.09,0,0,1-.309,1.166C3119.207,1149.782,3119.125,1149.858,3119.047,1149.927Zm-1.4-.947c0,.733,0,.733.462.73.6,0,.888-.233.894-.718s-.252-.652-.9-.691C3117.469,1148.263,3117.693,1148.708,3117.649,1148.98Z" transform="translate(-3071.2 -1109.612)" fill="#fb6a3b"/>
    <path id="Path_2291" data-name="Path 2291" d="M3162.751,1151.692c-.354,0-.71.009-1.064-.006-.1,0-.265-.084-.264-.129a.8.8,0,0,1,.134-.309c.064-.127.184-.251.187-.379q.025-1.17,0-2.341c0-.127-.124-.251-.187-.378a.685.685,0,0,1-.114-.279c0-.043.147-.118.229-.119.709-.01,1.419-.016,2.128,0,.1,0,.272.145.27.218a3.514,3.514,0,0,1-.133.655,1.582,1.582,0,0,0-.387-.21,4.085,4.085,0,0,0-.957-.127c-.072,0-.19.3-.2.46-.026.621-.012.622.615.621a1.605,1.605,0,0,1,.465.011c.116.036.2.166.3.255-.1.09-.183.241-.291.258a4.136,4.136,0,0,1-.764.013c-.234-.007-.344.094-.33.328,0,.028,0,.057,0,.085-.029.856.165,1.022,1,.821.1-.024.153-.2.246-.279s.214-.2.289-.181c.411.113.208.467.22.717,0,.094-.178.271-.288.282C3163.491,1151.714,3163.12,1151.692,3162.751,1151.692Z" transform="translate(-3112.179 -1109.511)" fill="#fb6a3b"/>
    <path id="Path_2292" data-name="Path 2292" d="M2996.268,1151.108c-.018-.43-.219-.574-.586-.54a3.232,3.232,0,0,1-.6,0c-.39-.036-.6.118-.586.411l.281.508a2.262,2.262,0,0,1-.43.15,1.988,1.988,0,0,1-.551,0,1.067,1.067,0,0,1-.3-.148c.053-.088.1-.18.16-.262.088-.121.225-.221.273-.354.311-.865.6-1.737.911-2.632a1.007,1.007,0,0,1-.236-.166.37.37,0,0,1-.083-.252c.008-.049.125-.11.2-.114a3.452,3.452,0,0,1,.847.008.61.61,0,0,1,.335.362c.33.874.624,1.761.957,2.634a2.665,2.665,0,0,0,.378.5.384.384,0,0,1,.1.248.268.268,0,0,1-.191.167,6.8,6.8,0,0,1-.892.005.919.919,0,0,1-.3-.147c.062-.1.118-.2.188-.289A.526.526,0,0,1,2996.268,1151.108Zm-.809-2.743-.138,0-.574,1.746c.4,0,.712.01,1.026-.009.06,0,.173-.142.16-.19C2995.787,1149.4,2995.62,1148.882,2995.459,1148.365Z" transform="translate(-2958.549 -1109.46)" fill="#fb6a3b"/>
    <path id="Path_2293" data-name="Path 2293" d="M3078.86,1151.68c-.354,0-.71.01-1.064-.005a.839.839,0,0,1-.279-.13c.052-.1.105-.2.156-.3.062-.126.172-.253.174-.381q.022-1.17,0-2.341a1.233,1.233,0,0,0-.165-.394c-.036-.084-.12-.208-.091-.247a.38.38,0,0,1,.266-.138c.681-.012,1.362-.017,2.043,0,.1,0,.274.137.278.216a2.17,2.17,0,0,1-.105.636.732.732,0,0,1-.328-.058c-.12-.068-.2-.255-.315-.273a1.454,1.454,0,0,0-.75.027c-.113.047-.135.352-.167.545-.062.39.084.588.512.53a2.043,2.043,0,0,1,.635.008c.1.018.26.178.245.234a.417.417,0,0,1-.254.275,3.66,3.66,0,0,1-.764.012c-.253-.013-.369.1-.366.344,0,.043,0,.085-.007.128-.035.745.345,1.024,1.065.76.091-.033.129-.194.21-.278s.19-.2.258-.184c.369.09.2.409.229.638.02.183.023.385-.262.38C3079.626,1151.675,3079.243,1151.679,3078.86,1151.68Z" transform="translate(-3035.416 -1109.499)" fill="#fb6a3b"/>
    <path id="Path_2294" data-name="Path 2294" d="M3248.905,1150.731a4.6,4.6,0,0,1-.55-.043.585.585,0,0,1-.521-.85.312.312,0,0,1,.224-.184c.078,0,.224.1.232.164a.425.425,0,0,0,.544.4,1.452,1.452,0,0,0,.777-.318c.261-.265.081-.679-.318-.843-.3-.123-.622-.193-.912-.334a.955.955,0,0,1-.558-1.195,1.009,1.009,0,0,1,.9-.83,4.142,4.142,0,0,1,.932,0c.525.063.685.3.565.815a.335.335,0,0,1-.247.2c-.085,0-.245-.111-.251-.184-.036-.434-.348-.385-.626-.379-.3.006-.569.108-.631.45a.557.557,0,0,0,.411.655c.25.1.511.164.754.275a1.1,1.1,0,0,1,.761,1.22,1.252,1.252,0,0,1-1.236.971c-.085,0-.17,0-.255,0Z" transform="translate(-3191.19 -1108.53)" fill="#fb6a3b"/>
    <path id="Path_2295" data-name="Path 2295" d="M2953.2,1149.175a1.864,1.864,0,0,1,2.621-1.913c.279.09.464.806.249,1a.4.4,0,0,1-.314.053.267.267,0,0,1-.144-.213c.025-.448-.266-.468-.587-.46-.776.018-1.188.557-1.185,1.549,0,1.04.367,1.5,1.184,1.511.349,0,.718.048.673-.5,0-.056.147-.182.215-.174a.376.376,0,0,1,.275.18c.19.572-.013.876-.613.963l-.084.013C2953.988,1151.4,2953.188,1150.694,2953.2,1149.175Z" transform="translate(-2921.678 -1108.959)" fill="#fb6a3b"/>
    <path id="Path_2296" data-name="Path 2296" d="M3037.956,1151.225c.1.019.2.01.258.058a.4.4,0,0,1,.143.256c0,.056-.124.159-.2.162-.382.017-.765.018-1.146,0-.074,0-.211-.1-.206-.143.011-.091.083-.238.149-.248.336-.054.338-.281.335-.537-.006-.694.01-1.389-.013-2.082a.529.529,0,0,0-.224-.412c-.2-.069-.457-.075-.511.265-.012.072-.177.162-.271.163a.317.317,0,0,1-.218-.2c-.166-.546-.008-.747.562-.748.708,0,1.417-.01,2.125.007.121,0,.338.114.343.185a3.824,3.824,0,0,1-.08.725c-.137-.044-.38-.067-.393-.135a.323.323,0,0,0-.47-.272.517.517,0,0,0-.22.4c-.018.793,0,1.586,0,2.38A1.124,1.124,0,0,0,3037.956,1151.225Z" transform="translate(-2997.427 -1109.53)" fill="#fb6a3b"/>
    <path id="Path_2297" data-name="Path 2297" d="M3128.292,876.26c-.605,0-1.087.018-1.566-.013a.439.439,0,0,1-.314-.282c-.061-.659-.081-1.323-.121-2.116Z" transform="translate(-3080.036 -858.935)" fill="#fb6a3b"/>
    <path id="Path_2298" data-name="Path 2298" d="M3095.2,874.882c-.041.685-.072,1.371-.135,2.055a.368.368,0,0,1-.262.24c-.461.025-.924.011-1.5.011l1.808-2.324Z" transform="translate(-3049.865 -859.865)" fill="#fb6a3b"/>
  </g>
</svg>
