<svg id="Group_34" data-name="Group 34" xmlns="http://www.w3.org/2000/svg" xmlns:xlink="http://www.w3.org/1999/xlink" width="86.031" height="88.752" viewBox="0 0 86.031 88.752">
  <defs>
    <linearGradient id="linear-gradient" x1="0.5" x2="0.5" y2="1" gradientUnits="objectBoundingBox">
      <stop offset="0" stop-color="#62cbac"/>
      <stop offset="1" stop-color="#00040e"/>
    </linearGradient>
  </defs>
  <g id="_404-error" data-name="404-error" transform="translate(0 0)">
    <path id="Path_239" data-name="Path 239" d="M139.933,87.686v53.348a3.149,3.149,0,0,1-3.147,3.148H59.149A3.149,3.149,0,0,1,56,141.034V87.686a3.149,3.149,0,0,1,3.147-3.147h77.636a3.149,3.149,0,0,1,3.149,3.147Z" transform="translate(-54.951 -76.141)" opacity="0.1" fill="url(#linear-gradient)"/>
    <path id="Path_240" data-name="Path 240" d="M223.089,391.455h-23.8l4.759-18.864h14.28Z" transform="translate(-168.174 -303.752)" fill="#fff"/>
    <path id="Path_241" data-name="Path 241" d="M139.933,108.689v53.348a3.149,3.149,0,0,1-3.147,3.147H59.149A3.149,3.149,0,0,1,56,162.037V108.689a3.149,3.149,0,0,1,3.147-3.147h77.636a3.149,3.149,0,0,1,3.149,3.148Z" transform="translate(-54.951 -92.737)" fill="#fff"/>
    <path id="Path_242" data-name="Path 242" d="M130.871,153.713h52.511v38.956H130.871Z" transform="translate(-114.111 -130.801)" fill="#fff"/>
    <path id="Path_243" data-name="Path 243" d="M139.933,115.65v-6.96a3.147,3.147,0,0,0-3.147-3.147H59.149A3.147,3.147,0,0,0,56,108.689v6.96Z" transform="translate(-54.951 -92.737)" fill="#fff"/>
    <path id="Path_244" data-name="Path 244" d="M56,339.4v7.425a3.147,3.147,0,0,0,3.147,3.147h77.636a3.147,3.147,0,0,0,3.147-3.147V339.4Z" transform="translate(-54.951 -277.525)" fill="#fff"/>
    <g id="Group_32" data-name="Group 32" transform="translate(0 11.756)">
      <path id="Path_245" data-name="Path 245" d="M90.132,124.555a1.049,1.049,0,0,0-1.049,1.049v.031a1.049,1.049,0,0,0,2.1,0V125.6A1.049,1.049,0,0,0,90.132,124.555Z" transform="translate(-81.091 -119.516)" fill="url(#linear-gradient)"/>
      <path id="Path_246" data-name="Path 246" d="M109.457,124.555a1.049,1.049,0,0,0-1.049,1.049v.031a1.049,1.049,0,0,0,2.1,0V125.6a1.049,1.049,0,0,0-1.049-1.049Z" transform="translate(-96.361 -119.516)" fill="url(#linear-gradient)"/>
      <path id="Path_247" data-name="Path 247" d="M128.781,124.555a1.049,1.049,0,0,0-1.049,1.049v.031a1.049,1.049,0,0,0,2.1,0V125.6A1.049,1.049,0,0,0,128.781,124.555Z" transform="translate(-111.63 -119.516)" fill="url(#linear-gradient)"/>
      <path id="Path_248" data-name="Path 248" d="M132.835,100.541H55.2a4.2,4.2,0,0,0-4.2,4.2V111.7a1.049,1.049,0,0,0,1.049,1.049h82.884v32.137a1.049,1.049,0,1,0,2.1,0V104.745A4.2,4.2,0,0,0,132.835,100.541Zm2.1,10.108H53.1v-5.911a2.1,2.1,0,0,1,2.1-2.1h77.636a2.1,2.1,0,0,1,2.1,2.1Z" transform="translate(-51 -100.541)" fill="url(#linear-gradient)"/>
      <path id="Path_249" data-name="Path 249" d="M135.982,209.437H53.1V177.3a1.049,1.049,0,1,0-2.1,0v40.609a4.2,4.2,0,0,0,4.2,4.2H84.618L81.3,235.264H78.083a1.049,1.049,0,1,0,0,2.1h31.866a1.049,1.049,0,0,0,0-2.1h-3.217l-3.319-13.157h29.421a4.2,4.2,0,0,0,4.2-4.2v-7.425a1.049,1.049,0,0,0-1.049-1.049Zm-31.417,25.828h-21.1l3.319-13.157h14.461Zm30.364-17.353a2.1,2.1,0,0,1-2.1,2.1H55.2a2.1,2.1,0,0,1-2.1-2.1v-6.376h81.833Z" transform="translate(-51 -160.367)" fill="url(#linear-gradient)"/>
    </g>
    <path id="Path_250" data-name="Path 250" d="M130.871,153.713v37.765" transform="translate(-114.111 -130.801)" stroke="#45907d" stroke-miterlimit="10" stroke-width="3" fill="url(#linear-gradient)"/>
    <path id="Path_251" data-name="Path 251" d="M379.2,153.713v37.765" transform="translate(-310.333 -130.801)" fill="none" stroke="#4a9985" stroke-miterlimit="10" stroke-width="3"/>
    <g id="Group_33" data-name="Group 33" transform="translate(14.254 27.642)">
      <path id="Path_255" data-name="Path 255" d="M371.738,273.889a1.045,1.045,0,0,1-.738-.307,1.262,1.262,0,0,0-1.783,0,1.049,1.049,0,1,1-1.483-1.483,1.26,1.26,0,0,0,0-1.783,1.049,1.049,0,1,1,1.483-1.483,1.26,1.26,0,0,0,1.783,0,1.049,1.049,0,1,1,1.483,1.483,1.26,1.26,0,0,0,0,1.783,1.049,1.049,0,0,1-.738,1.791Z" transform="translate(-315.284 -249.165)" fill="url(#linear-gradient)"/>
      <path id="Path_256" data-name="Path 256" d="M371.738,238.019a1.045,1.045,0,0,1-.738-.307,1.26,1.26,0,0,0-1.783,0,1.049,1.049,0,1,1-1.483-1.483,1.26,1.26,0,0,0,0-1.783,1.049,1.049,0,1,1,1.483-1.484,1.262,1.262,0,0,0,1.783,0,1.049,1.049,0,1,1,1.483,1.484,1.26,1.26,0,0,0,0,1.783,1.049,1.049,0,0,1-.738,1.791Z" transform="translate(-315.284 -220.82)" fill="url(#linear-gradient)"/>
      <path id="Path_257" data-name="Path 257" d="M123.333,217.591a1.046,1.046,0,0,1-.738-.307,1.262,1.262,0,0,0-1.783,0,1.049,1.049,0,1,1-1.483-1.484,1.26,1.26,0,0,0,0-1.783,1.049,1.049,0,1,1,1.483-1.484,1.262,1.262,0,0,0,1.783,0,1.049,1.049,0,0,1,1.483,1.484,1.26,1.26,0,0,0,0,1.783,1.049,1.049,0,0,1-.738,1.791Z" transform="translate(-118.998 -204.679)" fill="url(#linear-gradient)"/>
      <path id="Path_258" data-name="Path 258" d="M123.34,181.737a1.046,1.046,0,0,1-.738-.307,1.262,1.262,0,0,0-1.783,0,1.049,1.049,0,0,1-1.483-1.484,1.26,1.26,0,0,0,0-1.783,1.049,1.049,0,1,1,1.483-1.483,1.26,1.26,0,0,0,1.783,0,1.049,1.049,0,1,1,1.483,1.483,1.26,1.26,0,0,0,0,1.783,1.049,1.049,0,0,1-.738,1.791Z" transform="translate(-119.006 -176.349)" fill="url(#linear-gradient)"/>
    </g>
    <path id="Path_262" data-name="Path 262" d="M330.5,51.217a1.046,1.046,0,0,1-.738-.307L327.454,48.6a1.049,1.049,0,0,1,0-1.483l2.306-2.306a1.049,1.049,0,0,1,1.483,0l2.306,2.306a1.049,1.049,0,0,1,0,1.483l-2.306,2.306A1.046,1.046,0,0,1,330.5,51.217Zm-.823-3.356.823.823.823-.823-.823-.823Z" transform="translate(-269.198 -44.507)" fill="url(#linear-gradient)"/>
    <path id="Path_263" data-name="Path 263" d="M120.091,435.235a1.045,1.045,0,0,1-.738-.307l-2.306-2.306a1.049,1.049,0,0,1,0-1.483l2.306-2.306a1.049,1.049,0,0,1,1.483,0l2.306,2.306a1.049,1.049,0,0,1,0,1.483l-2.306,2.306a1.045,1.045,0,0,1-.745.307Zm-.823-3.356.823.823.823-.823-.823-.823Z" transform="translate(-102.94 -347.948)" fill="url(#linear-gradient)"/>
    <path id="Path_264" data-name="Path 264" d="M350.564,414.263a1.045,1.045,0,0,1-.738-.307l-2.306-2.306a1.049,1.049,0,0,1,0-1.483l2.306-2.306a1.049,1.049,0,0,1,1.483,0l2.306,2.306a1.049,1.049,0,0,1,0,1.483l-2.306,2.306a1.045,1.045,0,0,1-.745.307Zm-.823-3.356.823.823.823-.823-.823-.823Z" transform="translate(-285.054 -331.374)" fill="url(#linear-gradient)"/>
    <path id="Path_265" data-name="Path 265" d="M400.388,441.235a1.045,1.045,0,0,1-.738-.307l-2.311-2.308a1.049,1.049,0,0,1,0-1.483l2.306-2.306a1.049,1.049,0,0,1,1.483,0l2.306,2.306a1.049,1.049,0,0,1,0,1.483l-2.306,2.306A1.045,1.045,0,0,1,400.388,441.235Zm-.823-3.355.823.823.823-.823-.823-.823Z" transform="translate(-324.423 -352.689)" fill="url(#linear-gradient)"/>
  </g>
  <g id="XMLID_1983_" transform="translate(25.741 28.004)">
    <g id="XMLID_287_" transform="translate(0 0)">
      <path id="XMLID_389_" d="M8.463,20.154A3.131,3.131,0,0,0,10.71,18.1H21.361a3.214,3.214,0,0,0,3.072-2.311l1.287-4.443a5.755,5.755,0,1,0-6.345-8.52h-2.11a.59.59,0,0,0,0,1.18h1.569a5.755,5.755,0,0,0,5.48,7.526h.128L23.3,15.475a2.033,2.033,0,0,1-1.943,1.461H10.868a3.108,3.108,0,0,0-.068-.488L8.027,4h3.958a.59.59,0,1,0,0-1.18H7.766l-.084-.375A3.1,3.1,0,0,0,4.633.006H.59A.59.59,0,0,0,0,.588V3.179a.59.59,0,0,0,.59.59H4.132L7.011,16.687a4.266,4.266,0,0,0,1.576,8.229h1.57a2.888,2.888,0,1,0,3.541,0h6.476a2.888,2.888,0,1,0,3.541,0H26.8a.59.59,0,0,0,.59-.59V21.741a.59.59,0,0,0-.59-.59H8.579a.506.506,0,0,1-.115-1ZM19.736,5.763a4.574,4.574,0,1,1,4.574,4.574,4.574,4.574,0,0,1-4.574-4.574ZM11.924,28.906a1.713,1.713,0,1,1,1.713-1.713,1.713,1.713,0,0,1-1.713,1.713Zm10.014,0a1.713,1.713,0,1,1,1.713-1.713,1.713,1.713,0,0,1-1.713,1.713ZM6.9,20.643a1.682,1.682,0,0,0,1.681,1.681H26.2v1.409H8.579a3.09,3.09,0,0,1-.738-6.09.59.59,0,0,0,.432-.7L5.165,3.051a.59.59,0,0,0-.574-.459H1.18V1.178H4.633a1.937,1.937,0,0,1,1.9,1.527L9.652,16.69A1.955,1.955,0,0,1,8.2,19.011a1.673,1.673,0,0,0-1.3,1.636Z" transform="translate(0 -0.005)" fill="url(#linear-gradient)"/>
      <path id="XMLID_1053_" d="M239.6,49.181a.59.59,0,1,0-.415-.173.59.59,0,0,0,.415.173Z" transform="translate(-224.974 -45.188)" fill="url(#linear-gradient)"/>
      <path id="XMLID_1058_" d="M374.6,56.005h-1.409V54.59a.59.59,0,1,0-1.18,0V56H370.6a.59.59,0,1,0,0,1.18h1.409v1.409a.59.59,0,1,0,1.18,0V57.18H374.6a.59.59,0,0,0,0-1.18Z" transform="translate(-348.281 -50.835)" fill="url(#linear-gradient)"/>
    </g>
  </g>
</svg>
