<svg id="design_1_" data-name="design (1)" xmlns="http://www.w3.org/2000/svg" xmlns:xlink="http://www.w3.org/1999/xlink" width="97.568" height="95.138" viewBox="0 0 97.568 95.138">
  <defs>
    <linearGradient id="linear-gradient" x1="0.5" x2="0.5" y2="1" gradientUnits="objectBoundingBox">
      <stop offset="0" stop-color="#62cbac"/>
      <stop offset="1" stop-color="#00040e"/>
    </linearGradient>
    <linearGradient id="linear-gradient-2" x1="0.5" x2="0.5" y2="1" gradientUnits="objectBoundingBox">
      <stop offset="0" stop-color="#62cbac"/>
      <stop offset="1" stop-color="#316656"/>
    </linearGradient>
  </defs>
  <path id="Path_164" data-name="Path 164" d="M183.933,146.553l-5.869-1.667a23.4,23.4,0,0,0-2.718-6.558l2.971-5.335a1.165,1.165,0,0,0-.195-1.388l-4.012-4.012a1.165,1.165,0,0,0-1.388-.195l-5.335,2.971a23.4,23.4,0,0,0-5.148-2.32v-11.1a4.569,4.569,0,0,0-.423-1.915l-4.558-9.8a2.27,2.27,0,0,0-4.117,0l-4.56,9.8a4.534,4.534,0,0,0-.423,1.915v11.1a23.392,23.392,0,0,0-5.148,2.32l-5.335-2.971a1.165,1.165,0,0,0-1.388.195l-4.012,4.012a1.165,1.165,0,0,0-.195,1.388l2.971,5.335a23.391,23.391,0,0,0-2.718,6.558l-5.871,1.671a1.163,1.163,0,0,0-.845,1.119v5.674a1.163,1.163,0,0,0,.845,1.119l5.871,1.671a23.39,23.39,0,0,0,2.718,6.558l-2.971,5.335a1.165,1.165,0,0,0,.195,1.388l4.012,4.012a1.165,1.165,0,0,0,1.388.195l5.335-2.971a23.391,23.391,0,0,0,6.558,2.718l1.671,5.871a1.163,1.163,0,0,0,1.119.845h5.674a1.163,1.163,0,0,0,1.119-.845l1.671-5.871a23.391,23.391,0,0,0,6.558-2.718l5.335,2.971a1.165,1.165,0,0,0,1.388-.195l4.012-4.012a1.165,1.165,0,0,0,.195-1.388l-2.971-5.335a23.391,23.391,0,0,0,2.718-6.558l5.871-1.671a1.163,1.163,0,0,0,.845-1.119v-5.674a1.162,1.162,0,0,0-.839-1.116Zm-40.9,3.956a12.149,12.149,0,0,1,5.127-9.92v19.84a12.149,12.149,0,0,1-5.127-9.92Zm19.206,9.92V140.59a12.16,12.16,0,0,1,0,19.839Z" transform="translate(-106.412 -90.854)" opacity="0.1" fill="url(#linear-gradient)"/>
  <g id="Group_26" data-name="Group 26" transform="translate(1.14 3.676)">
    <path id="Path_165" data-name="Path 165" d="M426.541,269.265h-3.912a1.4,1.4,0,0,1-1.4-1.4v-3.912a1.4,1.4,0,0,1,1.4-1.4h3.912a1.4,1.4,0,0,1,1.4,1.4v3.912a1.4,1.4,0,0,1-1.4,1.4Z" transform="translate(-336.098 -217.177)" fill="#fff"/>
    <path id="Path_166" data-name="Path 166" d="M66.519,269.265H62.606a1.4,1.4,0,0,1-1.4-1.4v-3.912a1.4,1.4,0,0,1,1.4-1.4h3.912a1.4,1.4,0,0,1,1.4,1.4v3.912a1.4,1.4,0,0,1-1.4,1.4Z" transform="translate(-57.758 -217.177)" fill="#fff"/>
    <path id="Path_167" data-name="Path 167" d="M246.53,74.471h-3.911a1.4,1.4,0,0,1-1.4-1.4V69.161a1.4,1.4,0,0,1,1.4-1.4h3.912a1.4,1.4,0,0,1,1.4,1.4v3.912a1.4,1.4,0,0,1-1.4,1.4Z" transform="translate(-196.928 -66.58)" fill="#fff"/>
    <circle id="Ellipse_14" data-name="Ellipse 14" cx="3.451" cy="3.451" r="3.451" transform="translate(87.348 2.643) rotate(-22.514)" fill="#fff"/>
    <circle id="Ellipse_15" data-name="Ellipse 15" cx="3.451" cy="3.451" r="3.451" transform="translate(0 1.089)" fill="#fff"/>
  </g>
  <path id="Path_168" data-name="Path 168" d="M183.936,225.52l-5.873-1.671a23.39,23.39,0,0,0-2.718-6.558l2.971-5.335a1.165,1.165,0,0,0-.195-1.388l-4.012-4.012a1.165,1.165,0,0,0-1.388-.195l-5.335,2.971a23.39,23.39,0,0,0-6.558-2.718l-1.671-5.871a1.163,1.163,0,0,0-1.119-.845h-5.674a1.163,1.163,0,0,0-1.119.845l-1.671,5.871a23.391,23.391,0,0,0-6.558,2.718l-5.335-2.971a1.165,1.165,0,0,0-1.388.195l-4.012,4.012a1.165,1.165,0,0,0-.195,1.388l2.971,5.335a23.39,23.39,0,0,0-2.718,6.558l-5.871,1.671a1.163,1.163,0,0,0-.845,1.119v5.674a1.163,1.163,0,0,0,.845,1.119l5.871,1.671a23.391,23.391,0,0,0,2.718,6.558L132.084,247a1.165,1.165,0,0,0,.195,1.388l4.012,4.012a1.165,1.165,0,0,0,1.388.195l5.335-2.971a23.391,23.391,0,0,0,6.558,2.718l1.671,5.871a1.163,1.163,0,0,0,1.119.845h5.674a1.163,1.163,0,0,0,1.119-.845l1.671-5.871a23.4,23.4,0,0,0,6.558-2.718l5.335,2.971a1.165,1.165,0,0,0,1.388-.195l4.012-4.012a1.165,1.165,0,0,0,.195-1.388l-2.971-5.335a23.39,23.39,0,0,0,2.718-6.558l5.871-1.671a1.163,1.163,0,0,0,.845-1.119v-5.674A1.163,1.163,0,0,0,183.936,225.52ZM155.2,241.643a12.166,12.166,0,1,1,12.166-12.166A12.166,12.166,0,0,1,155.2,241.643Z" transform="translate(-106.414 -165.055)" fill="#fff"/>
  <path id="Path_169" data-name="Path 169" d="M239.051,137.946v43.488a12.166,12.166,0,0,1-14.08,0V137.946a4.534,4.534,0,0,1,.423-1.915l4.56-9.8a2.27,2.27,0,0,1,4.117,0l4.558,9.8A4.572,4.572,0,0,1,239.051,137.946Z" transform="translate(-183.226 -107.089)" fill="url(#linear-gradient-2)"/>
  <path id="Path_170" data-name="Path 170" d="M232.011,188.1v44.423a12.09,12.09,0,0,1-7.04-2.246V188.1Z" transform="translate(-183.226 -155.935)" fill="#fff"/>
  <path id="Path_171" data-name="Path 171" d="M229.95,126.233l-4.559,9.8a4.541,4.541,0,0,0-.424,1.916v2.894a5.76,5.76,0,0,0,5.817-.219,2.314,2.314,0,0,1,2.478.019,5.758,5.758,0,0,0,5.786.2v-2.9a4.541,4.541,0,0,0-.424-1.915l-4.557-9.8a2.27,2.27,0,0,0-4.117,0Z" transform="translate(-183.223 -107.09)" fill="#fff"/>
  <path id="Path_172" data-name="Path 172" d="M238.431,126.233l-2.493,5.365a7.181,7.181,0,0,0,9.1,0l-2.493-5.362a2.27,2.27,0,0,0-4.118,0Z" transform="translate(-191.704 -107.09)" fill="#fff"/>
  <path id="Path_173" data-name="Path 173" d="M133.975,71.508a4.585,4.585,0,1,0-4.44-5.72H94.268v-.822a2.535,2.535,0,0,0-2.531-2.531H87.824a2.535,2.535,0,0,0-2.531,2.531v.822H50.022a4.585,4.585,0,1,0,0,2.269H76.14A42,42,0,0,0,47.821,106.63h-.838a2.535,2.535,0,0,0-2.531,2.531v3.912a2.535,2.535,0,0,0,2.531,2.531h3.912a2.535,2.535,0,0,0,2.531-2.531v-3.912a2.535,2.535,0,0,0-2.531-2.531h-.8a39.707,39.707,0,0,1,35.2-38.322v.569a2.535,2.535,0,0,0,2.531,2.531h3.912a2.535,2.535,0,0,0,2.531-2.531v-.569a39.707,39.707,0,0,1,35.2,38.32h-.807a2.535,2.535,0,0,0-2.531,2.531v3.912a2.535,2.535,0,0,0,2.531,2.531h3.912a2.535,2.535,0,0,0,2.531-2.531V109.16a2.535,2.535,0,0,0-2.531-2.531h-.838a42,42,0,0,0-28.319-38.573h26.12a4.591,4.591,0,0,0,4.438,3.451ZM51.158,109.162v3.912a.263.263,0,0,1-.263.262H46.983a.263.263,0,0,1-.263-.262v-3.912a.263.263,0,0,1,.263-.262h3.912a.263.263,0,0,1,.263.262Zm81.682,0v3.912a.263.263,0,0,1-.263.262H128.66a.263.263,0,0,1-.263-.262v-3.912a.263.263,0,0,1,.263-.262h3.912a.263.263,0,0,1,.268.262Zm1.135-44.555a2.316,2.316,0,1,1-2.316,2.316A2.316,2.316,0,0,1,133.975,64.607ZM45.586,69.239A2.316,2.316,0,1,1,47.9,66.923a2.316,2.316,0,0,1-2.316,2.316ZM92,68.88a.263.263,0,0,1-.262.262H87.824a.263.263,0,0,1-.262-.262V64.967a.263.263,0,0,1,.262-.263h3.912a.263.263,0,0,1,.262.263Z" transform="translate(-40.994 -58.707)" fill="url(#linear-gradient)"/>
  <path id="Path_174" data-name="Path 174" d="M180.379,162.6l-5.246-1.494a24.493,24.493,0,0,0-2.347-5.662l2.655-4.77a2.308,2.308,0,0,0-.384-2.74l-4.012-4.012a2.308,2.308,0,0,0-2.742-.384l-4.769,2.655a24.6,24.6,0,0,0-4.028-1.835V134.078a5.719,5.719,0,0,0-.529-2.394l-4.558-9.8a3.406,3.406,0,0,0-6.176,0l-4.558,9.8a5.717,5.717,0,0,0-.529,2.394v10.274a24.551,24.551,0,0,0-4.029,1.836l-4.77-2.655a2.308,2.308,0,0,0-2.74.384L127.6,147.93a2.31,2.31,0,0,0-.383,2.742l2.654,4.768a24.5,24.5,0,0,0-2.347,5.662l-5.246,1.494a2.307,2.307,0,0,0-1.669,2.211v5.674a2.307,2.307,0,0,0,1.669,2.21l5.246,1.494a24.491,24.491,0,0,0,2.347,5.662l-2.655,4.77a2.31,2.31,0,0,0,.384,2.74l4.012,4.012a2.307,2.307,0,0,0,2.741.383l4.769-2.654a24.5,24.5,0,0,0,5.662,2.346l1.494,5.246a2.307,2.307,0,0,0,2.211,1.669h5.674a2.307,2.307,0,0,0,2.21-1.669l1.494-5.246a24.5,24.5,0,0,0,5.662-2.346l4.769,2.655a2.307,2.307,0,0,0,2.741-.384l4.012-4.012a2.31,2.31,0,0,0,.383-2.741l-2.654-4.769a24.505,24.505,0,0,0,2.346-5.662l5.246-1.494a2.307,2.307,0,0,0,1.669-2.21v-5.674a2.307,2.307,0,0,0-1.668-2.212Zm-29.047-20.658a1.135,1.135,0,0,0-1.135,1.135v35.541a11.024,11.024,0,0,1-7.039-18.371v11.073a1.135,1.135,0,0,0,2.269,0V138.6a6.864,6.864,0,0,0,5.293-.894,1.18,1.18,0,0,1,1.26.023,6.864,6.864,0,0,0,5.259.874v38.179a1.122,1.122,0,0,0,.016.16,10.957,10.957,0,0,1-4.788,1.673V143.071a1.135,1.135,0,0,0-1.136-1.129Zm8.178,18.294a11.023,11.023,0,0,1,0,14.808ZM150.3,122.839a1.137,1.137,0,0,1,2.061,0l2.093,4.5a6.057,6.057,0,0,1-3.125.874,5.973,5.973,0,0,1-3.124-.874Zm-4.558,9.8,1.5-3.229a8.307,8.307,0,0,0,8.174,0l1.5,3.229a3.431,3.431,0,0,1,.318,1.437v2.162a4.622,4.622,0,0,1-4.044-.427,3.458,3.458,0,0,0-3.694-.015,4.591,4.591,0,0,1-2.48.724,4.649,4.649,0,0,1-1.59-.282v-2.161a3.433,3.433,0,0,1,.312-1.434Zm34.035,37.836a.028.028,0,0,1-.022.028l-5.871,1.672a1.135,1.135,0,0,0-.791.821,22.236,22.236,0,0,1-2.586,6.241,1.133,1.133,0,0,0-.021,1.14l2.97,5.334a.032.032,0,0,1,0,.036l-4.012,4.012a.031.031,0,0,1-.034,0l-5.335-2.971a1.133,1.133,0,0,0-1.14.021A22.228,22.228,0,0,1,156.7,189.4a1.136,1.136,0,0,0-.821.791l-1.672,5.871a.028.028,0,0,1-.028.021H148.5a.028.028,0,0,1-.028-.022l-1.671-5.871a1.135,1.135,0,0,0-.821-.791,22.241,22.241,0,0,1-6.242-2.586,1.133,1.133,0,0,0-1.14-.021l-5.334,2.97a.031.031,0,0,1-.035,0l-4.012-4.012a.032.032,0,0,1,0-.035l2.971-5.335a1.133,1.133,0,0,0-.021-1.14A22.222,22.222,0,0,1,129.582,173a1.136,1.136,0,0,0-.791-.821L122.92,170.5a.028.028,0,0,1-.021-.028V164.8a.028.028,0,0,1,.022-.028l5.871-1.671a1.135,1.135,0,0,0,.791-.821,22.24,22.24,0,0,1,2.586-6.242,1.133,1.133,0,0,0,.021-1.14l-2.97-5.334a.032.032,0,0,1,0-.036l4.012-4.012a.032.032,0,0,1,.034,0l5.335,2.971a1.135,1.135,0,0,0,1.14-.021,22.287,22.287,0,0,1,3.426-1.693v10.384a13.3,13.3,0,1,0,16.35-.008V146.764a22.288,22.288,0,0,1,3.424,1.693,1.134,1.134,0,0,0,1.14.021l5.334-2.97a.031.031,0,0,1,.036,0l4.012,4.012a.032.032,0,0,1,0,.035l-2.971,5.335a1.133,1.133,0,0,0,.021,1.14,22.227,22.227,0,0,1,2.586,6.242,1.136,1.136,0,0,0,.791.821l5.871,1.672a.028.028,0,0,1,.021.028Z" transform="translate(-102.547 -103.222)" fill="url(#linear-gradient)"/>
  <path id="Path_175" data-name="Path 175" d="M137.84,53.24a3.451,3.451,0,1,0-3.256-4.585H97v-.822a1.4,1.4,0,0,0-1.4-1.4H91.688a1.4,1.4,0,0,0-1.4,1.4v.822H52.706a3.451,3.451,0,1,0,0,2.268H81.78a42.05,42.05,0,0,0-30.1,39.707h-.827a1.4,1.4,0,0,0-1.4,1.4v3.912a1.4,1.4,0,0,0,1.394,1.4H54.76a1.4,1.4,0,0,0,1.4-1.4V92.028a1.4,1.4,0,0,0-1.4-1.4h-.815A39.76,39.76,0,0,1,90.292,51.624v.121a1.4,1.4,0,0,0,1.4,1.4H95.6a1.4,1.4,0,0,0,1.4-1.4v-.121a39.758,39.758,0,0,1,36.347,39.006h-.815a1.4,1.4,0,0,0-1.4,1.4V95.94a1.4,1.4,0,0,0,1.4,1.4h3.912a1.4,1.4,0,0,0,1.4-1.4V92.028a1.4,1.4,0,0,0-1.4-1.4h-.827a42.052,42.052,0,0,0-30.1-39.707h29.074a3.447,3.447,0,0,0,3.252,2.316Z" transform="translate(-44.861 -46.338)" opacity="0.1" fill="url(#linear-gradient)"/>
  <g id="Group_27" data-name="Group 27" transform="translate(0.3 18.353)">
    <path id="Path_176" data-name="Path 176" d="M45.926,134.483a1.135,1.135,0,0,1-1.135-1.135,1.362,1.362,0,0,0-1.36-1.36,1.135,1.135,0,0,1,0-2.269,1.362,1.362,0,0,0,1.36-1.36,1.135,1.135,0,0,1,2.269,0,1.362,1.362,0,0,0,1.36,1.36,1.135,1.135,0,1,1,0,2.269,1.362,1.362,0,0,0-1.36,1.36,1.135,1.135,0,0,1-1.135,1.135Z" transform="translate(-42.297 -127.225)" fill="url(#linear-gradient)"/>
    <path id="Path_177" data-name="Path 177" d="M333.152,162.369a1.135,1.135,0,0,1-1.135-1.135,1.362,1.362,0,0,0-1.361-1.36,1.135,1.135,0,1,1,0-2.269,1.362,1.362,0,0,0,1.361-1.36,1.135,1.135,0,1,1,2.269,0,1.362,1.362,0,0,0,1.36,1.36,1.135,1.135,0,0,1,0,2.269,1.362,1.362,0,0,0-1.36,1.36,1.135,1.135,0,0,1-1.134,1.135Z" transform="translate(-264.356 -148.785)" fill="url(#linear-gradient)"/>
    <path id="Path_178" data-name="Path 178" d="M89.4,413.256a1.13,1.13,0,0,1-.8-.328L86.1,410.434a1.134,1.134,0,0,1,0-1.6l2.494-2.494a1.134,1.134,0,0,1,1.6,0L92.7,408.83a1.133,1.133,0,0,1,0,1.6L90.2,412.928A1.13,1.13,0,0,1,89.4,413.256Zm-.89-3.629.89.89.89-.89-.89-.89Z" transform="translate(-75.907 -342.75)" fill="url(#linear-gradient)"/>
    <path id="Path_179" data-name="Path 179" d="M420.215,333.748a1.13,1.13,0,0,1-.8-.328l-2.494-2.494a1.133,1.133,0,0,1,0-1.6l2.494-2.494a1.134,1.134,0,0,1,1.6,0l2.494,2.494a1.134,1.134,0,0,1,0,1.6l-2.494,2.494a1.131,1.131,0,0,1-.8.328Zm-.89-3.629.89.89.89-.89-.89-.89Z" transform="translate(-331.667 -281.281)" fill="url(#linear-gradient)"/>
  </g>
</svg>
