<svg xmlns="http://www.w3.org/2000/svg" xmlns:xlink="http://www.w3.org/1999/xlink" width="95.209" height="99.644" viewBox="0 0 95.209 99.644"><defs><linearGradient id="a" x1="0.5" x2="0.5" y2="1" gradientUnits="objectBoundingBox"><stop offset="0" stop-color="#62cbac"/><stop offset="1" stop-color="#00040e"/></linearGradient><linearGradient id="b" x1="0.5" x2="0.5" y2="1" gradientUnits="objectBoundingBox"><stop offset="0" stop-color="#62cbac"/><stop offset="1" stop-color="#316656"/></linearGradient></defs><g transform="translate(-604.561 -727.344)"><g transform="translate(604.561 727.344)"><path d="M128.245,79.216h-79.1a3.208,3.208,0,0,0-3.207,3.207v37.005l-7,12.515a4.277,4.277,0,0,0,.814,5.214l6.19,5.778v.257a3.208,3.208,0,0,0,3.207,3.207h79.1a3.208,3.208,0,0,0,3.207-3.207V82.423a3.208,3.208,0,0,0-3.207-3.207Z" transform="translate(-37.316 -67.197)" opacity="0.1" fill="url(#a)"/><path d="M159.2,103.419v60.766A3.208,3.208,0,0,1,156,167.392H76.9a3.208,3.208,0,0,1-3.207-3.207V103.419a3.208,3.208,0,0,1,3.207-3.207H156a3.208,3.208,0,0,1,3.208,3.207Z" transform="translate(-65.067 -83.703)" fill="#fff"/><path d="M210.79,248.105H176.109a.641.641,0,0,1-.641-.641V214.192a.641.641,0,0,1,.641-.641H210.79a.641.641,0,0,1,.641.641v33.271a.641.641,0,0,1-.641.642Z" transform="translate(-145.081 -172.807)" opacity="0.79" fill="url(#b)"/><path d="M159.2,120.595V103.42A3.208,3.208,0,0,0,156,100.213H76.9a3.208,3.208,0,0,0-3.207,3.207v17.174Z" transform="translate(-65.067 -83.703)" fill="#fff"/><path d="M159.2,110.511V103.42A3.207,3.207,0,0,0,156,100.213H76.9a3.207,3.207,0,0,0-3.207,3.207v7.091Z" transform="translate(-65.067 -83.703)" fill="#fff"/><path d="M212.376,46.878a1.069,1.069,0,0,1-.756-.316l-2.349-2.348a1.069,1.069,0,0,1,0-1.512l2.351-2.351a1.069,1.069,0,0,1,1.513,0l2.351,2.351a1.069,1.069,0,0,1,0,1.512l-2.351,2.351A1.069,1.069,0,0,1,212.376,46.878Zm-.843-3.42.843.843.843-.843-.843-.843Z" transform="translate(-171.412 -36.397)" fill="url(#a)"/><path d="M363.859,463.821a1.069,1.069,0,0,1-1.069-1.069,1.287,1.287,0,0,0-1.286-1.286,1.069,1.069,0,0,1,0-2.138,1.287,1.287,0,0,0,1.286-1.286,1.069,1.069,0,1,1,2.139,0,1.287,1.287,0,0,0,1.286,1.286,1.069,1.069,0,1,1,0,2.138,1.287,1.287,0,0,0-1.286,1.286,1.069,1.069,0,0,1-1.07,1.069Z" transform="translate(-290.499 -364.177)" fill="url(#a)"/><path d="M382.76,227.9H366.512a.641.641,0,0,1-.641-.641V187.064a.641.641,0,0,1,.641-.641h16.247a.641.641,0,0,1,.641.641v40.193a.641.641,0,0,1-.64.641Z" transform="translate(-294.773 -151.48)" fill="#fff"/><path d="M383.4,191.23H365.87v-4.167a.641.641,0,0,1,.641-.641h16.247a.641.641,0,0,1,.641.641v4.167Z" transform="translate(-294.773 -151.479)" fill="url(#a)"/><path d="M365.871,267.478H383.4v4.808H365.87Z" transform="translate(-294.773 -215.203)" fill="url(#a)"/><path d="M382.76,227.9H366.512a.641.641,0,0,1-.641-.641V187.064a.641.641,0,0,1,.641-.641h16.247a.641.641,0,0,1,.641.641v40.193a.641.641,0,0,1-.64.641Z" transform="translate(-294.773 -151.48)" fill="none" stroke="#397769" stroke-linecap="round" stroke-linejoin="round" stroke-miterlimit="10" stroke-width="3"/><g transform="translate(73.183 59.693)"><path d="M380.608,303.98h-4.347a.641.641,0,0,1-.641-.641V302.8a.641.641,0,0,1,.641-.641h4.347a.641.641,0,0,1,.641.641v.534A.641.641,0,0,1,380.608,303.98Z" transform="translate(-375.62 -302.164)" fill="url(#a)"/><path d="M416.767,303.98H412.42a.641.641,0,0,1-.641-.641V302.8a.641.641,0,0,1,.641-.641h4.347a.641.641,0,0,1,.641.641v.534A.641.641,0,0,1,416.767,303.98Z" transform="translate(-404.047 -302.164)" fill="url(#a)"/><path d="M380.608,318.227h-4.347a.641.641,0,0,1-.641-.641v-.534a.641.641,0,0,1,.641-.641h4.347a.641.641,0,0,1,.641.641v.534A.641.641,0,0,1,380.608,318.227Z" transform="translate(-375.62 -313.365)" fill="url(#a)"/><path d="M416.767,318.227H412.42a.641.641,0,0,1-.641-.641v-.534a.641.641,0,0,1,.641-.641h4.347a.641.641,0,0,1,.641.641v.534A.641.641,0,0,1,416.767,318.227Z" transform="translate(-404.047 -313.365)" fill="url(#a)"/><path d="M380.608,332.474h-4.347a.641.641,0,0,1-.641-.641V331.3a.641.641,0,0,1,.641-.641h4.347a.641.641,0,0,1,.641.641v.534A.641.641,0,0,1,380.608,332.474Z" transform="translate(-375.62 -324.565)" fill="url(#a)"/><path d="M416.767,332.474H412.42a.641.641,0,0,1-.641-.641V331.3a.641.641,0,0,1,.641-.641h4.347a.641.641,0,0,1,.641.641v.534A.641.641,0,0,1,416.767,332.474Z" transform="translate(-404.047 -324.565)" fill="url(#a)"/></g><path d="M121.6,203.834v-16.77a.641.641,0,0,0-.641-.641h-8.551a.641.641,0,0,0-.641.641v16.77a.641.641,0,0,0,.641.641h8.551A.641.641,0,0,0,121.6,203.834Z" transform="translate(-95.001 -151.48)" fill="#fff"/><path d="M121.6,191.23h-9.834v-4.167a.641.641,0,0,1,.641-.641h8.551a.641.641,0,0,1,.641.641v4.167Z" transform="translate(-95 -151.479)" fill="url(#a)"/><path d="M121.6,203.834v-16.77a.641.641,0,0,0-.641-.641h-8.551a.641.641,0,0,0-.641.641v16.77a.641.641,0,0,0,.641.641h8.551A.641.641,0,0,0,121.6,203.834Z" transform="translate(-95.001 -151.48)" fill="none" stroke="#2a5952" stroke-linecap="round" stroke-linejoin="round" stroke-miterlimit="10" stroke-width="2"/><path d="M88.644,423.851h-11.4a2.138,2.138,0,0,1-2.138-2.138v-4.7H90.782v4.7A2.138,2.138,0,0,1,88.644,423.851Z" transform="translate(-66.18 -332.757)" fill="#fff"/><path d="M48.336,266.516h11.49l8.588-8.011a4.276,4.276,0,0,0,.814-5.214l-13.794-24.65a1.553,1.553,0,0,0-2.711,0L38.934,253.285a4.275,4.275,0,0,0,.814,5.214Z" transform="translate(-37.316 -184.048)" fill="#fff"/><circle cx="4.269" cy="4.269" r="4.269" transform="translate(12.493 65.585)" fill="url(#b)"/><path d="M80.572,404.951H63.139A2.138,2.138,0,0,1,61,402.813v-1.232a2.138,2.138,0,0,1,2.138-2.138H80.572a2.138,2.138,0,0,1,2.138,2.138v1.232A2.138,2.138,0,0,1,80.572,404.951Z" transform="translate(-55.093 -318.95)" fill="#fff"/><path d="M108.9,120.32v-.031a1.069,1.069,0,0,0-2.138,0v.031a1.069,1.069,0,0,0,2.138,0Z" transform="translate(-91.069 -98.647)" fill="#2626bc"/><path d="M128.222,120.32v-.031a1.069,1.069,0,0,0-2.138,0v.031a1.069,1.069,0,0,0,2.138,0Z" transform="translate(-106.259 -98.647)" fill="#2626bc"/><path d="M147.543,120.32v-.031a1.069,1.069,0,1,0-2.138,0v.031a1.069,1.069,0,0,0,2.138,0Z" transform="translate(-121.449 -98.647)" fill="#2626bc"/><path d="M124.3,95.212h-79.1a4.281,4.281,0,0,0-4.276,4.276v1.2a1.069,1.069,0,1,0,2.138,0v-1.2a2.14,2.14,0,0,1,2.138-2.138h79.1a2.14,2.14,0,0,1,2.138,2.138v6.022H42a1.069,1.069,0,0,0-1.069,1.074v29.632l-6.868,12.271A5.333,5.333,0,0,0,35.076,155l4.875,4.551a3.209,3.209,0,0,0-1.738,2.846v1.232a3.209,3.209,0,0,0,3.016,3.2v1.892a3.211,3.211,0,0,0,3.207,3.207h11.4a3.211,3.211,0,0,0,3.207-3.207v-1.892a3.209,3.209,0,0,0,3.016-3.2V162.4a3.209,3.209,0,0,0-1.738-2.846L65.2,155a5.333,5.333,0,0,0,1.017-6.518l-13.79-24.64a2.623,2.623,0,0,0-4.577,0l-4.784,8.548V107.649h83.382v52.607a2.14,2.14,0,0,1-2.138,2.138H67.175a1.069,1.069,0,0,0,0,2.138h57.134a4.281,4.281,0,0,0,4.276-4.276V99.488a4.281,4.281,0,0,0-4.276-4.276ZM55.839,169.793h-11.4a1.07,1.07,0,0,1-1.069-1.069v-1.882H56.908v1.882A1.07,1.07,0,0,1,55.839,169.793Zm4.085-6.158a1.07,1.07,0,0,1-1.069,1.069H41.421a1.07,1.07,0,0,1-1.069-1.069V162.4a1.07,1.07,0,0,1,1.069-1.069H58.854a1.07,1.07,0,0,1,1.069,1.069Zm-9.785-17.2a3.2,3.2,0,1,1-3.2,3.2,3.2,3.2,0,0,1,3.2-3.2Zm-1.069-20.38V144.4a5.338,5.338,0,1,0,2.138,0V126.046L64.35,149.531a3.2,3.2,0,0,1-.61,3.91l-6.1,5.7c-.019.018-.033.038-.05.057H42.69c-.017-.018-.031-.039-.05-.057l-6.1-5.7a3.2,3.2,0,0,1-.61-3.91Z" transform="translate(-33.375 -79.772)" fill="url(#a)"/><path d="M318.6,435.255l-2.351-2.351a1.069,1.069,0,0,0-1.512,0l-2.351,2.351a1.069,1.069,0,0,0,0,1.512l2.351,2.351a1.069,1.069,0,0,0,1.512,0l2.351-2.351A1.069,1.069,0,0,0,318.6,435.255Zm-3.107,1.595-.843-.843.843-.843.843.843Z" transform="translate(-252.478 -345.01)" fill="url(#a)"/><path d="M255.633,27.494a1.287,1.287,0,0,1,1.286,1.286,1.069,1.069,0,1,0,2.138,0,1.287,1.287,0,0,1,1.286-1.286,1.069,1.069,0,0,0,0-2.138,1.287,1.287,0,0,1-1.286-1.286,1.069,1.069,0,1,0-2.138,0,1.287,1.287,0,0,1-1.286,1.286,1.069,1.069,0,0,0,0,2.138Z" transform="translate(-207.266 -23.001)" fill="url(#a)"/><g transform="translate(16.757 31.413)"><path d="M224.236,255.824V236.657a2.14,2.14,0,0,0-2.138-2.138H198.3a2.14,2.14,0,0,0-2.138,2.138v19.167a2.14,2.14,0,0,0,2.138,2.138h23.8a2.141,2.141,0,0,0,2.138-2.138Zm-7.379,0V244.3h5.237v11.522Zm5.236-19.167v5.5h-23.8v-5.5ZM198.3,244.3h16.428v11.522H198.3Z" transform="translate(-178.107 -220.705)" fill="url(#a)"/><path d="M112.626,171.639h4.131a.862.862,0,0,0,0-1.725H112.62a.862.862,0,0,0,0,1.725Z" transform="translate(-111.758 -169.914)" fill="url(#a)"/><path d="M158.616,171.639h4.141a.862.862,0,0,0,0-1.725H158.62a.862.862,0,1,0,0,1.725Z" transform="translate(-147.915 -169.914)" fill="url(#a)"/><path d="M204.607,171.639h4.136a.862.862,0,0,0,0-1.725h-4.136a.862.862,0,1,0,0,1.725Z" transform="translate(-184.072 -169.914)" fill="url(#a)"/><path d="M250.6,171.639h4.136a.862.862,0,0,0,0-1.725H250.6a.862.862,0,1,0,0,1.725Z" transform="translate(-220.228 -169.914)" fill="url(#a)"/><path d="M296.589,171.639h4.136a.862.862,0,0,0,0-1.725h-4.136a.862.862,0,0,0,0,1.725Z" transform="translate(-256.385 -169.914)" fill="url(#a)"/></g></g></g></svg>