<svg xmlns="http://www.w3.org/2000/svg" width="142.823" height="41.39" viewBox="0 0 142.823 41.39">
  <g id="Group_11232" data-name="Group 11232" transform="translate(-1019.516 -5172.941)">
    <g id="Group_10259" data-name="Group 10259" transform="translate(1019.516 5172.941)" opacity="0.81" style="mix-blend-mode: luminosity;isolation: isolate">
      <g id="Group_1040" data-name="Group 1040" transform="translate(56.886 36.532)">
        <path id="Path_1316" data-name="Path 1316" d="M0,.073A4.725,4.725,0,0,1,.872,0,1.437,1.437,0,0,1,1.889.287a.876.876,0,0,1,.277.668.923.923,0,0,1-.663.9v.016a.877.877,0,0,1,.517.71,5.6,5.6,0,0,0,.271.965h-.47a4.69,4.69,0,0,1-.235-.84c-.1-.485-.292-.668-.7-.684H.454V3.543H0Zm.454,1.6H.918c.485,0,.793-.266.793-.668C1.712.553,1.383.355.9.35A1.852,1.852,0,0,0,.454.392Z" transform="translate(0 0.162)" fill="#4b4b4b"/>
        <path id="Path_1317" data-name="Path 1317" d="M.438,1.4A.809.809,0,0,0,1.3,2.28,1.664,1.664,0,0,0,2,2.15l.078.329a2.026,2.026,0,0,1-.84.162A1.177,1.177,0,0,1,0,1.362,1.226,1.226,0,0,1,1.185,0,1.07,1.07,0,0,1,2.228,1.19a1.759,1.759,0,0,1-.016.214Zm1.346-.329A.654.654,0,0,0,1.148.329a.761.761,0,0,0-.7.746Z" transform="translate(3.763 1.122)" fill="#4b4b4b"/>
        <path id="Path_1318" data-name="Path 1318" d="M1.983,2.484a1.676,1.676,0,0,1-.725.151A1.2,1.2,0,0,1,0,1.341,1.283,1.283,0,0,1,1.357,0a1.531,1.531,0,0,1,.637.131l-.1.355a1.066,1.066,0,0,0-.532-.12.874.874,0,0,0-.892.955.866.866,0,0,0,.877.945A1.3,1.3,0,0,0,1.9,2.14Z" transform="translate(7.51 1.127)" fill="#4b4b4b"/>
        <path id="Path_1319" data-name="Path 1319" d="M.021.845C.021.548.016.292,0,.057H.4l.016.5H.438A.758.758,0,0,1,1.137,0a.487.487,0,0,1,.131.016V.449A.692.692,0,0,0,1.111.433a.644.644,0,0,0-.616.59,1.293,1.293,0,0,0-.021.214V2.583H.021Z" transform="translate(11.143 1.122)" fill="#4b4b4b"/>
        <path id="Path_1320" data-name="Path 1320" d="M2.129,1.837c0,.261.005.491.021.689H1.743l-.026-.412h-.01a.95.95,0,0,1-.835.47C.475,2.583,0,2.364,0,1.477V0H.459V1.4c0,.48.146.8.564.8a.664.664,0,0,0,.605-.417A.669.669,0,0,0,1.67,1.55V0h.459Z" transform="translate(13.987 1.179)" fill="#4b4b4b"/>
        <path id="Path_1321" data-name="Path 1321" d="M.569.287A.271.271,0,0,1,.277.569.273.273,0,0,1,0,.287.28.28,0,0,1,.287,0,.273.273,0,0,1,.569.287ZM.057,3.522V1H.517V3.522Z" transform="translate(17.954 0.182)" fill="#4b4b4b"/>
        <path id="Path_1322" data-name="Path 1322" d="M.84,0V.605H1.5v.35H.84V2.317c0,.313.089.49.344.49a.86.86,0,0,0,.266-.031l.021.344a1.106,1.106,0,0,1-.407.068.639.639,0,0,1-.5-.2.936.936,0,0,1-.177-.658V.955H0V.605H.391V.141Z" transform="translate(20.078 0.574)" fill="#4b4b4b"/>
        <path id="Path_1323" data-name="Path 1323" d="M.021.741C.021.48.016.266,0,.057H.4L.423.465H.438A.871.871,0,0,1,1.232,0a.746.746,0,0,1,.715.506h.01A1.038,1.038,0,0,1,2.239.177.861.861,0,0,1,2.8,0c.334,0,.83.219.83,1.1V2.583H3.178V1.153C3.178.668,3,.376,2.63.376a.6.6,0,0,0-.543.417.757.757,0,0,0-.036.23v1.56H1.6V1.07c0-.4-.178-.694-.527-.694A.628.628,0,0,0,.506.835a.637.637,0,0,0-.037.224V2.583H.021Z" transform="translate(23.204 1.122)" fill="#4b4b4b"/>
        <path id="Path_1324" data-name="Path 1324" d="M.438,1.4A.809.809,0,0,0,1.3,2.28,1.663,1.663,0,0,0,2,2.15l.078.329a2.026,2.026,0,0,1-.84.162A1.177,1.177,0,0,1,0,1.362,1.226,1.226,0,0,1,1.185,0,1.07,1.07,0,0,1,2.228,1.19a1.7,1.7,0,0,1-.016.214Zm1.346-.329A.654.654,0,0,0,1.148.329a.761.761,0,0,0-.7.746Z" transform="translate(28.527 1.122)" fill="#4b4b4b"/>
        <path id="Path_1325" data-name="Path 1325" d="M.021.741C.021.48.016.266,0,.057H.407L.433.475h.01A.929.929,0,0,1,1.278,0c.35,0,.892.209.892,1.075V2.583H1.711V1.127c0-.407-.151-.746-.584-.746a.652.652,0,0,0-.616.47.662.662,0,0,0-.031.214V2.583H.021Z" transform="translate(32.437 1.122)" fill="#4b4b4b"/>
        <path id="Path_1326" data-name="Path 1326" d="M.84,0V.605H1.5v.35H.84V2.317c0,.313.089.49.344.49a.858.858,0,0,0,.266-.031l.021.344a1.107,1.107,0,0,1-.407.068.639.639,0,0,1-.5-.2.935.935,0,0,1-.177-.658V.955H0V.605H.392V.141Z" transform="translate(36.179 0.574)" fill="#4b4b4b"/>
        <path id="Path_1327" data-name="Path 1327" d="M2.437,3.575c-.1-.1-.193-.2-.329-.344a1.441,1.441,0,0,1-1.028.4A1,1,0,0,1,0,2.646,1.156,1.156,0,0,1,.689,1.618V1.6A1.208,1.208,0,0,1,.4.866.853.853,0,0,1,1.289,0a.732.732,0,0,1,.778.746c0,.37-.214.663-.772.939V1.7c.3.344.631.731.856.981a2.579,2.579,0,0,0,.339-1.028h.417a2.674,2.674,0,0,1-.506,1.3c.188.2.37.4.579.621ZM1.164,3.288a.98.98,0,0,0,.72-.318c-.209-.23-.6-.657-.992-1.106a.865.865,0,0,0-.454.715.694.694,0,0,0,.72.71ZM1.252.313A.457.457,0,0,0,.814.825a.987.987,0,0,0,.266.631c.355-.2.584-.392.584-.689A.414.414,0,0,0,1.258.313Z" transform="translate(41.345 0.13)" fill="#4b4b4b"/>
        <path id="Path_1328" data-name="Path 1328" d="M2.666,3.46a2.234,2.234,0,0,1-.929.172A1.648,1.648,0,0,1,0,1.847,1.75,1.75,0,0,1,1.837,0a1.888,1.888,0,0,1,.835.157l-.11.37A1.654,1.654,0,0,0,1.852.381,1.308,1.308,0,0,0,.48,1.832,1.278,1.278,0,0,0,1.832,3.246,1.814,1.814,0,0,0,2.573,3.1Z" transform="translate(47.901 0.13)" fill="#4b4b4b"/>
        <path id="Path_1329" data-name="Path 1329" d="M2.468,1.3A1.234,1.234,0,0,1,1.211,2.64,1.2,1.2,0,0,1,0,1.341,1.233,1.233,0,0,1,1.253,0,1.2,1.2,0,0,1,2.468,1.3Zm-2,.026c0,.553.318.971.767.971S2,1.884,2,1.315C2,.887,1.785.344,1.242.344S.465.845.465,1.325Z" transform="translate(52.013 1.122)" fill="#4b4b4b"/>
        <path id="Path_1330" data-name="Path 1330" d="M.021.741C.021.48.016.266,0,.057H.407L.433.475h.01A.929.929,0,0,1,1.278,0c.35,0,.892.209.892,1.075V2.583H1.711V1.127c0-.407-.151-.746-.584-.746a.652.652,0,0,0-.616.47.66.66,0,0,0-.031.214V2.583H.021Z" transform="translate(56.173 1.122)" fill="#4b4b4b"/>
        <path id="Path_1331" data-name="Path 1331" d="M.115,2.113A1.2,1.2,0,0,0,.72,2.3c.334,0,.49-.167.49-.376s-.13-.339-.47-.465C.287,1.294.073,1.044.073.741A.779.779,0,0,1,.945,0a1.259,1.259,0,0,1,.621.157L1.451.49A.983.983,0,0,0,.934.344C.663.344.511.5.511.689c0,.209.151.3.48.428.438.167.663.386.663.762,0,.443-.345.762-.945.762A1.44,1.44,0,0,1,0,2.463Z" transform="translate(60.045 1.122)" fill="#4b4b4b"/>
        <path id="Path_1332" data-name="Path 1332" d="M2.129,1.837c0,.261.005.491.021.689H1.743l-.026-.412h-.01a.951.951,0,0,1-.835.47C.475,2.583,0,2.364,0,1.477V0H.459V1.4c0,.48.146.8.563.8a.664.664,0,0,0,.606-.417A.674.674,0,0,0,1.67,1.55V0h.459Z" transform="translate(63.407 1.179)" fill="#4b4b4b"/>
        <path id="Path_1333" data-name="Path 1333" d="M0,0H.459V3.7H0Z" transform="translate(67.43)" fill="#4b4b4b"/>
        <path id="Path_1334" data-name="Path 1334" d="M.84,0V.605H1.5v.35H.84V2.317c0,.313.089.49.344.49a.859.859,0,0,0,.266-.031l.021.344a1.106,1.106,0,0,1-.407.068.639.639,0,0,1-.5-.2.936.936,0,0,1-.177-.658V.955H0V.605H.391V.141Z" transform="translate(69.508 0.574)" fill="#4b4b4b"/>
        <path id="Path_1335" data-name="Path 1335" d="M1.972,1.978a3.538,3.538,0,0,0,.042.605H1.6L1.56,2.265H1.545a.941.941,0,0,1-.772.376A.72.72,0,0,1,0,1.915C0,1.3.543.971,1.519.976V.924A.521.521,0,0,0,.945.339,1.259,1.259,0,0,0,.287.527l-.1-.3A1.567,1.567,0,0,1,1.012,0c.772,0,.96.527.96,1.033Zm-.443-.684c-.5-.01-1.07.078-1.07.569A.406.406,0,0,0,.892,2.3a.628.628,0,0,0,.61-.423.476.476,0,0,0,.026-.146Z" transform="translate(72.456 1.122)" fill="#4b4b4b"/>
        <path id="Path_1336" data-name="Path 1336" d="M.021.741C.021.48.016.266,0,.057H.407L.433.475h.01A.928.928,0,0,1,1.278,0c.35,0,.892.209.892,1.075V2.583H1.712V1.127c0-.407-.151-.746-.584-.746a.653.653,0,0,0-.616.47.662.662,0,0,0-.031.214V2.583H.021Z" transform="translate(76.282 1.122)" fill="#4b4b4b"/>
        <path id="Path_1337" data-name="Path 1337" d="M1.983,2.484a1.677,1.677,0,0,1-.725.151A1.2,1.2,0,0,1,0,1.341,1.283,1.283,0,0,1,1.357,0a1.532,1.532,0,0,1,.637.131l-.1.355a1.066,1.066,0,0,0-.532-.12.874.874,0,0,0-.892.955.866.866,0,0,0,.877.945A1.3,1.3,0,0,0,1.9,2.14Z" transform="translate(80.149 1.127)" fill="#4b4b4b"/>
        <path id="Path_1338" data-name="Path 1338" d="M.5,0l.553,1.492c.057.167.12.365.162.517h.01c.047-.151.1-.344.162-.527L1.889,0h.485L1.686,1.8A3.845,3.845,0,0,1,.819,3.381a1.245,1.245,0,0,1-.564.3L.141,3.293a1.214,1.214,0,0,0,.4-.224,1.39,1.39,0,0,0,.386-.511.328.328,0,0,0,.037-.11.4.4,0,0,0-.031-.12L0,0Z" transform="translate(83.562 1.179)" fill="#4b4b4b"/>
      </g>
      <path id="Path_1339" data-name="Path 1339" d="M20.144,0,0,20.093,20.144,40.236,40.288,20.093ZM5.165,20.118,20.144,5.158l14.823,14.96L20.144,35.13Z" transform="translate(9.23)" fill="#f47727"/>
      <path id="Path_1340" data-name="Path 1340" d="M0,0V28.791H23.575l-2.83-2.83H2.851V2.932H25.879V25.961h-.02l2.824,2.83h.107V0Z" transform="translate(0 5.647)" fill="#0499d3"/>
      <g id="Group_1041" data-name="Group 1041" transform="translate(56.858 5.903)">
        <path id="Path_1341" data-name="Path 1341" d="M0,16.288V.032C.09.023.161.011.232.011,2.141.01,4.05-.018,5.958.02A5.273,5.273,0,0,1,9.151,1.1,3.9,3.9,0,0,1,10.49,3.051a5.7,5.7,0,0,1,.195,2.619,4.528,4.528,0,0,1-.847,2.1.318.318,0,0,0-.021.082c.059.058.129.128.2.2a4.535,4.535,0,0,1,1.4,3.287,5.508,5.508,0,0,1-.307,2.09,3.966,3.966,0,0,1-1.449,1.936,5.165,5.165,0,0,1-3.011.946c-2.148.016-4.3,0-6.445,0C.145,16.308.082,16.3,0,16.288Zm2.693-2.744c.1.01.17.023.241.023,1.263,0,2.526.006,3.788,0a2.2,2.2,0,0,0,.65-.109,1.757,1.757,0,0,0,1.29-1.411,2.554,2.554,0,0,0-.081-1.282,1.254,1.254,0,0,0-.179-.339,2.127,2.127,0,0,0-1.763-.88c-1.235-.017-2.47,0-3.705,0a2.283,2.283,0,0,0-.24.026Zm0-6.77c.193.011.373.029.553.03q1.23,0,2.459,0a5.32,5.32,0,0,0,.633-.04A1.887,1.887,0,0,0,8.021,5c0-.147.008-.295,0-.441A1.733,1.733,0,0,0,7.155,3.1a2.285,2.285,0,0,0-1.179-.347c-1.031-.014-2.063-.005-3.095,0a1.033,1.033,0,0,0-.184.035Z" transform="translate(25.008 0.002)" fill="#4b4b4b"/>
        <path id="Path_1342" data-name="Path 1342" d="M7.717,10.434c.72.968,1.44,1.946,2.171,2.915S11.336,15.286,12.1,16.3H8.7L4.685,10.9H2.725a1.244,1.244,0,0,0-.031.193q0,2.46,0,4.92c0,.089-.011.179-.018.293-.9.024-1.782.008-2.675.006V.035C.1.026.175.013.254.013c1.7,0,3.395-.033,5.091.008A5.805,5.805,0,0,1,9.316,1.59a4.457,4.457,0,0,1,1.252,2.268,6.512,6.512,0,0,1-.032,3.359,4.787,4.787,0,0,1-2.314,2.906c-.151.087-.308.165-.461.249C7.746,10.38,7.739,10.4,7.717,10.434Zm-5-2.3c.082.007.144.016.206.016.811,0,1.622.005,2.433,0a3.815,3.815,0,0,0,.6-.075A2.6,2.6,0,0,0,7.6,7.035a1.634,1.634,0,0,0,.353-.8,6.51,6.51,0,0,0,.058-1.018A2.308,2.308,0,0,0,6.838,3.185a3.014,3.014,0,0,0-1.5-.426c-.811-.014-1.622,0-2.433,0a1.335,1.335,0,0,0-.195.03Z" transform="translate(0 0)" fill="#4b4b4b"/>
        <path id="Path_1343" data-name="Path 1343" d="M10.174,13.564v2.727c-1.135.047-2.256.009-3.377.018s-2.25,0-3.376,0H.08c-.035-.04-.042-.046-.047-.054A.088.088,0,0,1,.02,16.23.3.3,0,0,1,0,16.15Q0,8.162,0,.174A.3.3,0,0,1,.015.093.688.688,0,0,1,.063,0C.919,0,1.8,0,2.716,0c.011,1.157,0,2.278,0,3.4s0,2.248,0,3.372v6.765a7.693,7.693,0,0,0,.943.024c.3,0,.609,0,.913,0h5.6Z" transform="translate(12.968 0.007)" fill="#4b4b4b"/>
        <path id="Path_1344" data-name="Path 1344" d="M1.216,6.094v3.4A2.138,2.138,0,0,1,0,9.5V.24A3.357,3.357,0,0,1,1.2.223l.031.526A3.432,3.432,0,0,1,4.175.1,3.335,3.335,0,0,1,6.112,1.388a3.465,3.465,0,0,1-.2,4.355A3.429,3.429,0,0,1,1.216,6.094ZM1.2,3.437a5.27,5.27,0,0,0,.111.536A2.46,2.46,0,0,0,2.481,5.384a1.683,1.683,0,0,0,1.463.158,2.477,2.477,0,0,0,1.439-1.3,1.8,1.8,0,0,0,.063-1.452A2.4,2.4,0,0,0,4.231,1.448a1.736,1.736,0,0,0-1.205-.166A2.36,2.36,0,0,0,1.51,2.438,1.927,1.927,0,0,0,1.2,3.437Z" transform="translate(13.066 19.861)" fill="#4b4b4b"/>
        <path id="Path_1345" data-name="Path 1345" d="M1.337,4.073a.492.492,0,0,0,.095.41,2.367,2.367,0,0,0,2.29,1.139,2.981,2.981,0,0,0,1-.3.908.908,0,0,0,.491-.567.255.255,0,0,1,.036-.074.419.419,0,0,1,.059-.055H6.527a.664.664,0,0,1-.024.518A2.28,2.28,0,0,1,5.47,6.333a3.7,3.7,0,0,1-4.137-.172,3.371,3.371,0,0,1-1.27-2.1A3.332,3.332,0,0,1,.505,1.648,3.4,3.4,0,0,1,4.726.265,3.211,3.211,0,0,1,6.792,3.3a5.915,5.915,0,0,1-.021.607.732.732,0,0,1-.06.165l-2.7,0ZM1.314,2.811c.279.03.551.014.82.018s.552,0,.828,0h.856c.276,0,.552.006.828,0a4.274,4.274,0,0,0,.81-.029A2.318,2.318,0,0,0,3.506,1.24,2.327,2.327,0,0,0,1.314,2.811Z" transform="translate(36.004 19.857)" fill="#4b4b4b"/>
        <path id="Path_1346" data-name="Path 1346" d="M6.758,6.657H5.59L5.559,6.12a3.405,3.405,0,0,1-3.348.528A3.341,3.341,0,0,1,.506,5.216,3.415,3.415,0,0,1,1.017,1,3.26,3.26,0,0,1,3.234,0a3.081,3.081,0,0,1,2.32.769c.011-.22.02-.385.03-.588.4-.021.784,0,1.141-.013L6.769.22a.081.081,0,0,1,.015.022.281.281,0,0,1,.021.079q0,3.108.006,6.217a.143.143,0,0,1-.013.053A.6.6,0,0,1,6.758,6.657ZM5.588,3.408a3.055,3.055,0,0,0-.084-.5A2.437,2.437,0,0,0,4.089,1.375a1.63,1.63,0,0,0-1.027-.1,2.422,2.422,0,0,0-1.61,1.285,1.7,1.7,0,0,0-.126,1.467,2.485,2.485,0,0,0,.9,1.192,1.828,1.828,0,0,0,2.306.028A2.294,2.294,0,0,0,5.588,3.408Z" transform="translate(71.364 19.864)" fill="#4b4b4b"/>
        <path id="Path_1347" data-name="Path 1347" d="M6.807,3.367a3.452,3.452,0,0,1-3.213,3.5A3.436,3.436,0,0,1,3.256,0,3.448,3.448,0,0,1,6.807,3.367ZM3.428,1.237a2.191,2.191,0,0,0-2.2,2.222A2.161,2.161,0,0,0,3.415,5.632,2.148,2.148,0,0,0,5.586,3.441,2.163,2.163,0,0,0,3.428,1.237Z" transform="translate(24.605 19.862)" fill="#4b4b4b"/>
        <path id="Path_1348" data-name="Path 1348" d="M3.428,0A3.466,3.466,0,0,1,6.812,3.455,3.475,3.475,0,0,1,3.39,6.87,3.435,3.435,0,0,1,3.428,0ZM1.234,3.439A2.194,2.194,0,0,0,3.4,5.636a2.2,2.2,0,0,0,.013-4.4A2.175,2.175,0,0,0,1.234,3.439Z" transform="translate(56.287 19.863)" fill="#4b4b4b"/>
        <path id="Path_1349" data-name="Path 1349" d="M1.216,6.66H.01C-.009,6.114.005,5.576,0,5.039s0-1.068,0-1.6V.193H1.189c.011.138.023.275.036.439A1.276,1.276,0,0,0,1.4.553,3.651,3.651,0,0,1,3.919.036,3.32,3.32,0,0,1,5.2.437,3.038,3.038,0,0,1,6.544,2.166,4.7,4.7,0,0,1,6.8,3.739c0,.893,0,1.787-.006,2.68,0,.071-.012.141-.021.233H5.58c-.006-.1-.015-.189-.015-.277,0-.912,0-1.824,0-2.736a3.081,3.081,0,0,0-.123-.954A2.025,2.025,0,0,0,3.5,1.235,1.994,1.994,0,0,0,1.431,2.459a2.733,2.733,0,0,0-.216,1.1q0,1.409,0,2.818Z" transform="translate(64.021 19.863)" fill="#4b4b4b"/>
        <path id="Path_1350" data-name="Path 1350" d="M0,4.891H1.179a.8.8,0,0,0,.4.534A2.029,2.029,0,0,0,2.6,5.643a1.8,1.8,0,0,0,.8-.2.751.751,0,0,0,.4-.405.588.588,0,0,0-.235-.659,1.591,1.591,0,0,0-1.016-.3,3.245,3.245,0,0,1-1.083-.192,1.978,1.978,0,0,1-1.321-1.9A1.935,1.935,0,0,1,1.53.157,3.164,3.164,0,0,1,3.541.171,1.934,1.934,0,0,1,4.873,1.82a1.033,1.033,0,0,1-.011.194c-.382.017-.755.014-1.108,0C3.72,1.984,3.7,1.972,3.7,1.957c-.125-.5-.533-.626-.962-.7a1.526,1.526,0,0,0-1.064.211.637.637,0,0,0-.088,1.052,1.289,1.289,0,0,0,.9.3,3.6,3.6,0,0,1,1.195.19A1.99,1.99,0,0,1,5.023,4.866,1.846,1.846,0,0,1,3.989,6.548a3.169,3.169,0,0,1-1.881.311,2.293,2.293,0,0,1-1.65-.787A1.954,1.954,0,0,1,0,4.891Z" transform="translate(43.12 19.853)" fill="#4b4b4b"/>
        <path id="Path_1351" data-name="Path 1351" d="M4.861,2H3.734a1.239,1.239,0,0,0-1.447-.741,2.923,2.923,0,0,0-.645.228c-.381.171-.332.846-.05,1.046a1.614,1.614,0,0,0,.876.293,6.173,6.173,0,0,1,.8.074A2.062,2.062,0,0,1,5.027,4.705,1.646,1.646,0,0,1,4.71,5.878a2.172,2.172,0,0,1-1.559.948,3.687,3.687,0,0,1-1.7-.1A2.042,2.042,0,0,1,0,5.039a.654.654,0,0,1,.012-.154H1.182c.148.518.564.651,1.031.724A1.985,1.985,0,0,0,3.4,5.437a.6.6,0,0,0,.145-1.075,1.571,1.571,0,0,0-.963-.288,3.247,3.247,0,0,1-1.137-.2A1.947,1.947,0,0,1,.2,2.457,1.962,1.962,0,0,1,1.789.075,3.374,3.374,0,0,1,3.536.16a1.977,1.977,0,0,1,1.35,1.723A.557.557,0,0,1,4.861,2Z" transform="translate(48.557 19.859)" fill="#4b4b4b"/>
        <path id="Path_1352" data-name="Path 1352" d="M.019,4.884H1.188c.13.533.559.639,1.006.723a1.886,1.886,0,0,0,1.232-.183A.584.584,0,0,0,3.81,4.9a.627.627,0,0,0-.359-.6,1.722,1.722,0,0,0-.9-.222,3.033,3.033,0,0,1-1.082-.192A1.99,1.99,0,0,1,.307,2.769,1.967,1.967,0,0,1,1.8.077a3.258,3.258,0,0,1,1.772.1,1.955,1.955,0,0,1,1.318,1.69.364.364,0,0,1-.013.1,3.453,3.453,0,0,1-1.177.01.7.7,0,0,0-.418-.558,1.653,1.653,0,0,0-.967-.161,1.535,1.535,0,0,0-.673.231A.646.646,0,0,0,1.559,2.5a1.4,1.4,0,0,0,.913.333,6.693,6.693,0,0,1,.956.116,1.989,1.989,0,0,1,1.59,1.8A1.806,1.806,0,0,1,4.17,6.435a2.515,2.515,0,0,1-1.324.427,3.5,3.5,0,0,1-1.575-.206A2.034,2.034,0,0,1,0,5.008.561.561,0,0,1,.019,4.884Z" transform="translate(80.719 19.858)" fill="#4b4b4b"/>
        <path id="Path_1353" data-name="Path 1353" d="M3.572.038V1.183a1.73,1.73,0,0,0-.183.053,2.708,2.708,0,0,0-.5.22.93.93,0,0,0-.458.749c-.009.264,0,.528,0,.822H3.556a6.842,6.842,0,0,1,.02,1.244H2.434c-.01.094-.024.164-.024.233q0,2.349,0,4.7c0,.1-.008.2-.014.316H1.183c0-.293-.006-.575-.008-.856s0-.59,0-.884V4.3C.789,4.238.412,4.31.019,4.257a9.649,9.649,0,0,1,0-1.213H1.175c0-.239,0-.447,0-.655a2.266,2.266,0,0,1,.351-1.26A2.321,2.321,0,0,1,3.361,0,.87.87,0,0,1,3.5,0C3.516,0,3.532.018,3.572.038Z" transform="translate(31.805 16.999)" fill="#4b4b4b"/>
        <path id="Path_1354" data-name="Path 1354" d="M.055,0H1.23a2.83,2.83,0,0,1,.033.3q0,4.407,0,8.814a2.023,2.023,0,0,1-.026.226H.077C.007,9.121-.027,2.6.025.246A2.39,2.39,0,0,1,.055,0Z" transform="translate(79.081 17.176)" fill="#4b4b4b"/>
        <path id="Path_1355" data-name="Path 1355" d="M0,.182H1.156A1.731,1.731,0,0,1,1.193.39c0,.07-.008.141-.016.274A3.694,3.694,0,0,1,3.317,0a3.311,3.311,0,0,1,.025,1.2c-.152.028-.313.056-.473.087a1.946,1.946,0,0,0-1.6,1.621,5.14,5.14,0,0,0-.069.8c-.008.874,0,1.749,0,2.623,0,.1-.01.2-.018.337-.4,0-.779.01-1.181-.008Z" transform="translate(20.759 19.869)" fill="#4b4b4b"/>
        <path id="Path_1356" data-name="Path 1356" d="M.056,0H1.168c.073.212.085,6.214.012,6.47H.051C-.021,6.225-.014.218.056,0Z" transform="translate(54.603 20.053)" fill="#4b4b4b"/>
        <path id="Path_1357" data-name="Path 1357" d="M.62,1.224C.334,1.273-.011.9,0,.607A.685.685,0,0,1,.617,0a.676.676,0,0,1,.619.631C1.231.883.931,1.267.62,1.224Z" transform="translate(54.601 18.122)" fill="#4b4b4b"/>
      </g>
    </g>
  </g>
</svg>
