<svg id="Group_11" data-name="Group 11" xmlns="http://www.w3.org/2000/svg" xmlns:xlink="http://www.w3.org/1999/xlink" width="114.918" height="114.918" viewBox="0 0 114.918 114.918">
  <defs>
    <linearGradient id="linear-gradient" x1="0.5" x2="0.5" y2="1" gradientUnits="objectBoundingBox">
      <stop offset="0" stop-color="#62cbac"/>
      <stop offset="1" stop-color="#00040e"/>
    </linearGradient>
  </defs>
  <path id="Path_268" data-name="Path 268" d="M143.353,68.657a2.213,2.213,0,0,0-2.191-1.918h-5.113a40.68,40.68,0,0,0-29.984-31.984,10.016,10.016,0,1,0-19.879-.013,40.406,40.406,0,0,0-11.721,5.017A10.016,10.016,0,0,0,61.785,52.385,40.637,40.637,0,0,0,116.1,109.521l5.833,3.627a4.976,4.976,0,0,0,5.255,0l15.02-9.339a2.2,2.2,0,0,0,1.02-1.557A131.032,131.032,0,0,0,144.192,85a137.947,137.947,0,0,0-.84-16.347Z" transform="translate(-38.634 -20.67)" opacity="0.1" fill="url(#linear-gradient)"/>
  <circle id="Ellipse_20" data-name="Ellipse 20" cx="40.63" cy="40.63" r="40.63" transform="translate(0 57.459) rotate(-45)" fill="#fff"/>
  <circle id="Ellipse_21" data-name="Ellipse 21" cx="10.016" cy="10.016" r="10.016" transform="translate(18.5 32.567) rotate(-45)" fill="#fff"/>
  <path id="Path_269" data-name="Path 269" d="M117.8,136.756a3.673,3.673,0,1,0-6.295,2.566,3.658,3.658,0,0,0-1.051,2.566,1.107,1.107,0,1,0,2.213,0,1.46,1.46,0,0,1,2.92,0,1.107,1.107,0,1,0,2.213,0,3.659,3.659,0,0,0-1.05-2.566,3.66,3.66,0,0,0,1.049-2.566Zm-3.671-1.459a1.459,1.459,0,1,1-1.459,1.459,1.459,1.459,0,0,1,1.459-1.459Z" transform="translate(-81.457 -106.007)" fill="url(#linear-gradient)"/>
  <circle id="Ellipse_22" data-name="Ellipse 22" cx="10.016" cy="10.016" r="10.016" transform="translate(43.321 16.833) rotate(-45)" fill="#fff"/>
  <path id="Path_270" data-name="Path 270" d="M230,65.612a3.673,3.673,0,1,0-6.295,2.566,3.658,3.658,0,0,0-1.051,2.566,1.107,1.107,0,1,0,2.213,0,1.46,1.46,0,0,1,2.92,0,1.107,1.107,0,1,0,2.213,0,3.66,3.66,0,0,0-1.05-2.566A3.658,3.658,0,0,0,230,65.612Zm-3.671-1.459a1.459,1.459,0,1,1-1.459,1.459,1.459,1.459,0,0,1,1.459-1.459Z" transform="translate(-168.839 -50.602)" fill="url(#linear-gradient)"/>
  <circle id="Ellipse_23" data-name="Ellipse 23" cx="10.016" cy="10.016" r="10.016" transform="translate(29.531 89.163) rotate(-22.514)" fill="#fff"/>
  <path id="Path_271" data-name="Path 271" d="M162.631,416.359a6.274,6.274,0,0,0-7.344,5.132,1.107,1.107,0,0,0,2.213,0,1.46,1.46,0,1,1,2.92,0,1.107,1.107,0,0,0,2.213,0,3.661,3.661,0,0,1,0-5.132Zm-3.673-1.459a1.459,1.459,0,1,1-1.459,1.459,1.459,1.459,0,0,1,1.459-1.459Z" transform="translate(-116.371 -323.596)" fill="url(#linear-gradient)"/>
  <path id="Path_272" data-name="Path 272" d="M316.347,273.935a2.2,2.2,0,0,0,1.02-1.557,131.037,131.037,0,0,0,.962-17.251,137.979,137.979,0,0,0-.84-16.348,2.213,2.213,0,0,0-2.191-1.918H282.1a2.213,2.213,0,0,0-2.191,1.918,137.991,137.991,0,0,0-.84,16.348,131.053,131.053,0,0,0,.962,17.251,2.213,2.213,0,0,0,1.02,1.557l15.02,9.339a4.976,4.976,0,0,0,5.255,0Z" transform="translate(-212.77 -186.819)" fill="#fff"/>
  <path id="Path_273" data-name="Path 273" d="M140.557,82.6a3.32,3.32,0,0,0-3.289-2.892h-19.7a58.5,58.5,0,0,0-3.277-13.329,44.112,44.112,0,0,0,7.883-3.928,39.522,39.522,0,0,1,7.192,12.283,1.107,1.107,0,1,0,2.079-.756,41.75,41.75,0,0,0-28.1-25.968c0-.134.01-.267.01-.4a11.123,11.123,0,0,0-22.246,0c0,.128,0,.255.01.384a41.485,41.485,0,0,0-10.709,4.647,11.122,11.122,0,1,0-3,21.832c.111,0,.221,0,.331-.009a65.017,65.017,0,0,0-1.427,12.67H52.7a39.21,39.21,0,0,1,3.1-14.313,1.107,1.107,0,1,0-2.036-.863,41.708,41.708,0,0,0,13.16,49.479A11.12,11.12,0,1,0,87.563,129.7a42.352,42.352,0,0,0,4.638.259,41.786,41.786,0,0,0,19.976-5.084l5.279,3.284a6.05,6.05,0,0,0,6.422,0l15.028-9.329a3.3,3.3,0,0,0,1.53-2.337,132.344,132.344,0,0,0,.974-17.412,140.472,140.472,0,0,0-.85-16.487ZM115.324,79.7H104.071a3.32,3.32,0,0,0-3.289,2.892c-.171,1.347-.32,2.876-.443,4.533h-7.03V70.274a62.975,62.975,0,0,0,18.9-3.153A56.325,56.325,0,0,1,115.33,79.7ZM74.581,114.578q-.825-1.533-1.545-3.184a60.748,60.748,0,0,1,18.06-2.987v19.307a14.608,14.608,0,0,1-2.8-.5,11.123,11.123,0,0,0-13.713-12.637Zm25.507-7.924a66.525,66.525,0,0,0-6.777-.46V89.336H100.2c-.171,3.012-.263,6.345-.263,9.739,0,2.628.053,5.182.153,7.579Zm-8.992-.46a62.948,62.948,0,0,0-18.9,3.15,59.522,59.522,0,0,1-3.67-20.008H91.1Zm2.213,2.213a64.419,64.419,0,0,1,6.888.49c.165,2.9.406,5.5.71,7.6a3.3,3.3,0,0,0,1.53,2.337l3.153,1.961c-3.658,4.21-7.871,6.583-12.282,6.922ZM77.088,57.869a26.609,26.609,0,0,1,5.123-5.442A11.148,11.148,0,0,0,91.1,58.67v9.392A62.452,62.452,0,0,1,78.072,66.5a11.085,11.085,0,0,0-.987-8.634Zm25.152-5.411a32.283,32.283,0,0,1,9.138,12.614,60.776,60.776,0,0,1-18.069,2.991V58.675a11.147,11.147,0,0,0,8.93-6.217Zm18.416,8.328a42.267,42.267,0,0,1-7.2,3.541,34.039,34.039,0,0,0-10.427-14.046l.015-.062A39.477,39.477,0,0,1,120.655,60.786ZM92.234,38.693A8.911,8.911,0,1,1,83.322,47.6,8.911,8.911,0,0,1,92.234,38.693ZM81.419,50.2l.01.043a27.8,27.8,0,0,0-5.7,5.731,11.2,11.2,0,0,0-2.777-2.267A39.26,39.26,0,0,1,81.417,50.2ZM58.5,63.344a8.911,8.911,0,1,1,8.911,8.911A8.911,8.911,0,0,1,58.5,63.344ZM70.079,74.138a11.166,11.166,0,0,0,7.146-5.563,64.541,64.541,0,0,0,13.871,1.7V87.123H68.519a62.54,62.54,0,0,1,1.56-12.985ZM52.7,89.336H66.314a61.817,61.817,0,0,0,3.806,20.755,44.157,44.157,0,0,0-7.868,3.916,39.663,39.663,0,0,1-5.231-7.751A39.03,39.03,0,0,1,52.7,89.336ZM63.763,115.67a42.3,42.3,0,0,1,7.182-3.531q.716,1.656,1.535,3.2a11.2,11.2,0,0,0-4.551,4.08,39.7,39.7,0,0,1-4.161-3.748Zm13.561,18.593a8.911,8.911,0,1,1,8.911-8.911,8.911,8.911,0,0,1-8.911,8.911Zm25.6-7.992a26.689,26.689,0,0,0,4.567-4.3L110,123.526a39.281,39.281,0,0,1-7.071,2.749Zm35.316-10.1a1.1,1.1,0,0,1-.509.776l-15.016,9.344a3.845,3.845,0,0,1-4.086,0l-15.02-9.339a1.1,1.1,0,0,1-.509-.776,130.149,130.149,0,0,1-.952-17.093,138.16,138.16,0,0,1,.831-16.208,1.1,1.1,0,0,1,1.095-.959h33.2a1.1,1.1,0,0,1,1.093.959,138.141,138.141,0,0,1,.831,16.208,130.047,130.047,0,0,1-.952,17.094Z" transform="translate(-34.741 -30.775)" fill="url(#linear-gradient)"/>
  <g id="Group_36" data-name="Group 36" transform="translate(72.932 56.664)">
    <path id="Path_274" data-name="Path 274" d="M322.032,266.822v13.611H309.047q-.01-.977-.012-1.967c0-3.941.127-7.762.357-11.03a.662.662,0,0,1,.661-.614Z" transform="translate(-309.035 -266.822)" fill="url(#linear-gradient)"/>
    <path id="Path_275" data-name="Path 275" d="M309.083,328.349h12.985v20.008l-12.081-7.511a.658.658,0,0,1-.31-.493C309.346,337.058,309.132,332.816,309.083,328.349Z" transform="translate(-309.076 -314.738)" fill="url(#linear-gradient)"/>
    <path id="Path_276" data-name="Path 276" d="M380.8,278.466q0,.987-.012,1.967H367.805V266.822h11.98a.662.662,0,0,1,.661.614C380.675,270.7,380.8,274.523,380.8,278.466Z" transform="translate(-354.803 -266.82)" fill="url(#linear-gradient)"/>
    <path id="Path_277" data-name="Path 277" d="M380.793,328.349c-.049,4.467-.263,8.706-.6,12a.661.661,0,0,1-.31.493L367.8,348.357V328.349Z" transform="translate(-354.806 -314.738)" fill="url(#linear-gradient)"/>
  </g>
  <path id="Path_278" data-name="Path 278" d="M335.041,280.432v-1.105H323.156v-12.5h-2.213v12.51H309.052v1.105h0q0,.556.016,1.107h11.868v18.213l1.107.688,1.107-.688V281.538h11.868C335.032,281.171,335.041,280.432,335.041,280.432Z" transform="translate(-236.121 -210.157)" fill="#fff"/>
  <path id="Path_279" data-name="Path 279" d="M425.112,168.206a1.107,1.107,0,0,1-1.107-1.107,1.328,1.328,0,0,0-1.328-1.328,1.107,1.107,0,0,1,0-2.213,1.328,1.328,0,0,0,1.328-1.328,1.107,1.107,0,1,1,2.213,0,1.328,1.328,0,0,0,1.328,1.328,1.107,1.107,0,1,1,0,2.213,1.328,1.328,0,0,0-1.328,1.328A1.107,1.107,0,0,1,425.112,168.206Z" transform="translate(-323.748 -127.845)" fill="url(#linear-gradient)"/>
  <path id="Path_280" data-name="Path 280" d="M69.411,421.09a1.106,1.106,0,0,1-.782-.325L66.2,418.336a1.105,1.105,0,0,1,0-1.564l2.429-2.429a1.107,1.107,0,0,1,1.564,0l2.429,2.429a1.105,1.105,0,0,1,0,1.564l-2.438,2.43A1.107,1.107,0,0,1,69.411,421.09Zm-.865-3.541.865.865.865-.865-.865-.865Z" transform="translate(-46.74 -324.793)" fill="url(#linear-gradient)"/>
  <path id="Path_281" data-name="Path 281" d="M395.724,112.316a1.1,1.1,0,0,1-.782-.325l-2.429-2.429a1.105,1.105,0,0,1,0-1.564l2.429-2.429a1.105,1.105,0,0,1,1.564,0L398.934,108a1.105,1.105,0,0,1,0,1.564l-2.429,2.429a1.1,1.1,0,0,1-.782.323Zm-.865-3.541.865.865.865-.865-.865-.865Z" transform="translate(-300.864 -84.326)" fill="url(#linear-gradient)"/>
  <path id="Path_282" data-name="Path 282" d="M141.682,47.494a1.1,1.1,0,0,1-.782-.323l-2.429-2.429a1.105,1.105,0,0,1,0-1.564l2.429-2.429a1.105,1.105,0,0,1,1.564,0l2.429,2.429a1.105,1.105,0,0,1,0,1.564l-2.429,2.435A1.1,1.1,0,0,1,141.682,47.494Zm-.865-3.541.865.865.865-.865-.865-.865Z" transform="translate(-103.023 -33.844)" fill="url(#linear-gradient)"/>
</svg>
