<svg id="Group_15" data-name="Group 15" xmlns="http://www.w3.org/2000/svg" xmlns:xlink="http://www.w3.org/1999/xlink" width="80.826" height="85.564" viewBox="0 0 80.826 85.564">
  <defs>
    <linearGradient id="linear-gradient" x1="0.5" x2="0.5" y2="1" gradientUnits="objectBoundingBox">
      <stop offset="0" stop-color="#62cbac"/>
      <stop offset="1" stop-color="#00040e"/>
    </linearGradient>
  </defs>
  <g id="home_2_" data-name="home (2)" transform="translate(0 0)">
    <path id="Path_182" data-name="Path 182" d="M134.859,93.017v50.124A2.962,2.962,0,0,1,131.9,146.1H58.962A2.962,2.962,0,0,1,56,143.14V93.017a2.962,2.962,0,0,1,2.962-2.957H131.9a2.962,2.962,0,0,1,2.957,2.957Z" transform="translate(-55.019 -79.992)" opacity="0.1" fill="url(#linear-gradient)"/>
    <path id="Path_183" data-name="Path 183" d="M221.651,395.836h-22.36l4.472-17.724H217.18Z" transform="translate(-170.06 -311.257)" fill="#fff"/>
    <path id="Path_184" data-name="Path 184" d="M134.855,114.016v50.119A2.962,2.962,0,0,1,131.9,167.1H58.962A2.962,2.962,0,0,1,56,164.135V114.016a2.962,2.962,0,0,1,2.957-2.957H131.9a2.962,2.962,0,0,1,2.954,2.957Z" transform="translate(-55.015 -96.851)" fill="#fff"/>
    <path id="Path_188" data-name="Path 188" d="M226.615,295.7h-8.28V282.359a.986.986,0,0,1,.986-.986h6.308a.986.986,0,0,1,.986.986Z" transform="translate(-185.349 -233.589)" fill="#fff"/>
    <circle id="Ellipse_16" data-name="Ellipse 16" cx="2.497" cy="2.497" r="2.497" transform="translate(43.683 47.784)" fill="#fff"/>
    <path id="Path_189" data-name="Path 189" d="M134.859,120.56v-6.54a2.962,2.962,0,0,0-2.957-2.957H58.962A2.962,2.962,0,0,0,56,114.02v6.54Z" transform="translate(-55.019 -96.855)" fill="#fff"/>
    <path id="Path_190" data-name="Path 190" d="M56,344.919V351.9a2.962,2.962,0,0,0,2.957,2.957H131.9a2.962,2.962,0,0,0,2.957-2.957v-6.977Z" transform="translate(-55.019 -284.608)" fill="#fff"/>
    <g id="Group_29" data-name="Group 29" transform="translate(0 13.223)">
      <g id="Group_28" data-name="Group 28" transform="translate(0)">
        <path id="Path_191" data-name="Path 191" d="M90.07,132.075a.986.986,0,0,0,.986-.986v-.029a.986.986,0,0,0-1.972,0v.029A.986.986,0,0,0,90.07,132.075Z" transform="translate(-81.579 -125.341)" fill="url(#linear-gradient)"/>
        <path id="Path_192" data-name="Path 192" d="M109.395,132.075a.986.986,0,0,0,.986-.986v-.029a.986.986,0,1,0-1.972,0v.029A.986.986,0,0,0,109.395,132.075Z" transform="translate(-97.094 -125.341)" fill="url(#linear-gradient)"/>
        <path id="Path_193" data-name="Path 193" d="M128.721,132.075a.986.986,0,0,0,.986-.986v-.029a.986.986,0,1,0-1.972,0v.029A.986.986,0,0,0,128.721,132.075Z" transform="translate(-112.609 -125.341)" fill="url(#linear-gradient)"/>
        <path id="Path_194" data-name="Path 194" d="M127.888,106.062H54.948a3.947,3.947,0,0,0-3.943,3.943v50.123a3.947,3.947,0,0,0,3.943,3.943H82.587l-3.118,12.361H76.447a.986.986,0,1,0,0,1.972h29.939a.986.986,0,0,0,0-1.972h-3.022l-3.12-12.361h6.85a.986.986,0,0,0,0-1.972H54.945a1.973,1.973,0,0,1-1.972-1.972v-5.991h76.885v5.992a1.973,1.973,0,0,1-1.972,1.972H112.522a.986.986,0,1,0,0,1.972h15.365a3.947,3.947,0,0,0,3.943-3.943V110.006A3.948,3.948,0,0,0,127.888,106.062ZM101.33,176.431H81.5L84.62,164.07H98.212ZM52.974,152.165v-42.16a1.973,1.973,0,0,1,1.972-1.972h72.939a1.973,1.973,0,0,1,1.972,1.972v5.554h0c-.544,0,0,.38,0,.926s-.544,1.047,0,1.047h0v34.634H52.974Z" transform="translate(-51.005 -106.062)" fill="url(#linear-gradient)"/>
      </g>
      <path id="Path_195" data-name="Path 195" d="M7.806,1.974H.987A.987.987,0,0,1,.987,0H7.806a.987.987,0,0,1,0,1.974Z" transform="translate(75.397 38.607) rotate(180)" fill="url(#linear-gradient)"/>
      <path id="Path_199" data-name="Path 199" d="M16.086,1.974H.987A.987.987,0,0,1,.987,0h15.1a.987.987,0,0,1,0,1.974Z" transform="translate(75.397 43.887) rotate(180)" fill="url(#linear-gradient)"/>
      <path id="Path_200" data-name="Path 200" d="M7.806,1.974H.987A.987.987,0,0,1,.987,0H7.806a.987.987,0,0,1,0,1.974Z" transform="translate(75.397 35.101) rotate(180)" fill="url(#linear-gradient)"/>
      <path id="Path_201" data-name="Path 201" d="M7.806,1.974H.987A.987.987,0,0,1,.987,0H7.806a.987.987,0,0,1,0,1.974Z" transform="translate(75.397 31.594) rotate(180)" fill="url(#linear-gradient)"/>
      <circle id="Ellipse_17" data-name="Ellipse 17" cx="1.104" cy="1.104" r="1.104" transform="translate(66.743 14.792)" fill="url(#linear-gradient)"/>
      <circle id="Ellipse_18" data-name="Ellipse 18" cx="1.104" cy="1.104" r="1.104" transform="translate(66.743 18.725)" fill="url(#linear-gradient)"/>
      <circle id="Ellipse_19" data-name="Ellipse 19" cx="1.104" cy="1.104" r="1.104" transform="translate(66.743 22.658)" fill="url(#linear-gradient)"/>
    </g>
    <path id="Path_203" data-name="Path 203" d="M387.919,45.3a.986.986,0,0,1-.986-.986,1.188,1.188,0,0,0-1.186-1.186.986.986,0,1,1,0-1.972,1.188,1.188,0,0,0,1.186-1.186.986.986,0,0,1,1.972,0,1.188,1.188,0,0,0,1.186,1.186.986.986,0,0,1,0,1.972,1.188,1.188,0,0,0-1.186,1.186.986.986,0,0,1-.986.986Z" transform="translate(-318.967 -38.989)" fill="url(#linear-gradient)"/>
    <path id="Path_204" data-name="Path 204" d="M152.586,415.31a.986.986,0,0,1-.986-.986,1.188,1.188,0,0,0-1.186-1.186.986.986,0,0,1,0-1.972,1.188,1.188,0,0,0,1.186-1.186.986.986,0,0,1,1.972,0,1.188,1.188,0,0,0,1.186,1.186.986.986,0,0,1,0,1.972,1.188,1.188,0,0,0-1.186,1.186.986.986,0,0,1-.986.986Z" transform="translate(-130.027 -336.051)" fill="url(#linear-gradient)"/>
    <path id="Path_205" data-name="Path 205" d="M94.146,429.993a.986.986,0,0,1-.986-.986,1.188,1.188,0,0,0-1.186-1.186.986.986,0,0,1,0-1.972,1.188,1.188,0,0,0,1.186-1.186.986.986,0,1,1,1.972,0,1.188,1.188,0,0,0,1.186,1.186.986.986,0,0,1,0,1.972,1.188,1.188,0,0,0-1.186,1.186A.986.986,0,0,1,94.146,429.993Z" transform="translate(-83.106 -347.837)" fill="url(#linear-gradient)"/>
    <path id="Path_206" data-name="Path 206" d="M333.446,58.313a.982.982,0,0,1-.7-.289l-2.172-2.167a.985.985,0,0,1,0-1.394l2.168-2.168a.986.986,0,0,1,1.394,0l2.167,2.168a.986.986,0,0,1,0,1.394l-2.167,2.168A.983.983,0,0,1,333.446,58.313Zm-.774-3.154.774.774.774-.774-.774-.774Z" transform="translate(-275.233 -49.441)" fill="url(#linear-gradient)"/>
  </g>
  <g id="seo" transform="translate(10.597 17.095)">
    <path id="Path_293" data-name="Path 293" d="M116.9,91.183h18.5a3.034,3.034,0,0,1,3.025,3.037v8.091a.591.591,0,0,0,1.183,0V94.22A4.219,4.219,0,0,0,135.4,90H116.9a.591.591,0,1,0,0,1.183Z" transform="translate(-107.128 -82.901)" fill="url(#linear-gradient)"/>
    <path id="Path_294" data-name="Path 294" d="M24.163,109.447H13.009a.591.591,0,0,0-.451.208L9.205,113.6l-3.352-3.945a.591.591,0,0,0-.451-.208H4.208a3.034,3.034,0,0,1-3.025-3.037V94.22a3.034,3.034,0,0,1,3.025-3.037H7.022a.591.591,0,0,0,0-1.183H4.208A4.219,4.219,0,0,0,0,94.22v12.19a4.218,4.218,0,0,0,4.208,4.22h.926L8.759,114.9a.591.591,0,0,0,.9,0l3.626-4.267H24.163a.591.591,0,0,0,0-1.183Z" transform="translate(0.004 -82.901)" fill="url(#linear-gradient)"/>
    <path id="Path_295" data-name="Path 295" d="M17.457,423.007H12.079a.591.591,0,0,0,0,1.183h5.378a1.367,1.367,0,0,1,0,2.734H2.546a1.367,1.367,0,0,1,0-2.734h.523a.591.591,0,0,0,.479-.244l1.028-1.421,1.028,1.421a.591.591,0,0,0,.479.244h3.26a.591.591,0,0,0,0-1.183H6.386l-1.33-1.838a.591.591,0,0,0-.958,0l-1.331,1.838H2.546a2.551,2.551,0,0,0,0,5.1H17.457a2.551,2.551,0,0,0,0-5.1Z" transform="translate(0.004 -387.725)" fill="url(#linear-gradient)"/>
    <path id="Path_296" data-name="Path 296" d="M260.925,5.1h2.221a.591.591,0,0,0,0-1.183h-2.221a1.367,1.367,0,1,1,0-2.734h14.911a1.367,1.367,0,1,1,0,2.734h-.523a.592.592,0,0,0-.48.244l-1.028,1.421-1.028-1.418a.592.592,0,0,0-.48-.244h-6.413a.591.591,0,1,0,0,1.183h6.109l1.332,1.838a.591.591,0,0,0,.958,0L275.615,5.1h.221a2.551,2.551,0,0,0,0-5.1H260.925a2.551,2.551,0,1,0,0,5.1Z" transform="translate(-237.995)" fill="url(#linear-gradient)"/>
    <path id="Path_297" data-name="Path 297" d="M102.946,180.246a.591.591,0,0,0,0,1.183H106.1a.592.592,0,0,0,.591-.592v-3.155a.592.592,0,0,0-.591-.591h-2.563V175.12H106.1a.592.592,0,0,0,0-1.183h-3.155a.591.591,0,0,0-.591.591v3.155a.591.591,0,0,0,.591.592h2.563v1.972Z" transform="translate(-94.277 -160.217)" fill="url(#linear-gradient)"/>
    <path id="Path_298" data-name="Path 298" d="M181.1,175.119a.591.591,0,1,0,0-1.183h-3.155a.591.591,0,0,0-.591.591v6.31a.591.591,0,0,0,.591.591H181.1a.591.591,0,0,0,0-1.183h-2.563v-1.972H181.1a.591.591,0,0,0,0-1.183h-2.563V175.12Z" transform="translate(-163.361 -160.217)" fill="url(#linear-gradient)"/>
    <path id="Path_299" data-name="Path 299" d="M252.943,173.936a.592.592,0,0,0-.592.591v6.31a.592.592,0,0,0,.592.591H256.1a.592.592,0,0,0,.591-.591v-6.31a.591.591,0,0,0-.591-.591Zm2.563,6.31h-1.972v-5.127h1.972Z" transform="translate(-232.444 -160.217)" fill="url(#linear-gradient)"/>
    <path id="Path_300" data-name="Path 300" d="M343.409,274.728a.592.592,0,0,0-.5-.584l-.816-.13-.39-.94.485-.669a.592.592,0,0,0-.061-.766l-1.666-1.666a.592.592,0,0,0-.766-.06l-.668.486-.94-.389-.13-.816a.592.592,0,0,0-.584-.5h-2.362a.592.592,0,0,0-.584.5l-.13.816-.939.39-.669-.485a.591.591,0,0,0-.766.061l-1.666,1.672a.591.591,0,0,0-.06.766l.486.669-.389.94-.816.13a.592.592,0,0,0-.5.584V277.1a.591.591,0,0,0,.5.584l.817.13.39.94-.485.669a.591.591,0,0,0,.061.766l1.666,1.666a.591.591,0,0,0,.766.06l.668-.486.94.389.13.816a.591.591,0,0,0,.584.5h2.362a.591.591,0,0,0,.584-.5l.13-.817.939-.39.669.486a.592.592,0,0,0,.767-.061l1.666-1.672a.592.592,0,0,0,.06-.766l-.486-.669.389-.94.815-.13a.591.591,0,0,0,.5-.584Zm-1.826,1.961a.592.592,0,0,0-.454.358l-.642,1.552a.591.591,0,0,0,.068.574l.383.529-.956.957-.528-.383a.592.592,0,0,0-.574-.068l-1.55.648a.592.592,0,0,0-.357.454l-.1.648h-1.351l-.1-.648a.592.592,0,0,0-.358-.454l-1.551-.642a.591.591,0,0,0-.574.069l-.528.383-.956-.956.383-.529a.592.592,0,0,0,.068-.574l-.643-1.551a.591.591,0,0,0-.453-.358l-.648-.1v-1.353l.648-.1a.591.591,0,0,0,.453-.358l.642-1.552a.591.591,0,0,0-.068-.574l-.383-.529.956-.957.528.383a.592.592,0,0,0,.574.068l1.55-.648a.591.591,0,0,0,.357-.454l.1-.648h1.351l.1.648a.592.592,0,0,0,.358.454l1.551.642a.591.591,0,0,0,.574-.068l.528-.383.956.956-.383.529a.591.591,0,0,0-.068.574l.643,1.551a.592.592,0,0,0,.454.358l.648.1v1.353Z" transform="translate(-303.022 -247.498)" fill="url(#linear-gradient)"/>
    <path id="Path_301" data-name="Path 301" d="M386.76,323.426a.592.592,0,0,0-.592.591,1.918,1.918,0,1,1-1.125-1.749.591.591,0,1,0,.49-1.076,3.1,3.1,0,1,0,1.819,2.825.592.592,0,0,0-.591-.591Z" transform="translate(-351.078 -295.604)" fill="url(#linear-gradient)"/>
  </g>
</svg>
