<svg id="Group_13" data-name="Group 13" xmlns="http://www.w3.org/2000/svg" xmlns:xlink="http://www.w3.org/1999/xlink" width="83.023" height="89.393" viewBox="0 0 83.023 89.393">
  <defs>
    <linearGradient id="linear-gradient" x1="0.5" x2="0.5" y2="1" gradientUnits="objectBoundingBox">
      <stop offset="0" stop-color="#62cbac"/>
      <stop offset="1" stop-color="#00040e"/>
    </linearGradient>
    <linearGradient id="linear-gradient-2" x1="0.5" x2="0.5" y2="1" gradientUnits="objectBoundingBox">
      <stop offset="0" stop-color="#62cbac"/>
      <stop offset="1" stop-color="#316656"/>
    </linearGradient>
  </defs>
  <path id="Path_209" data-name="Path 209" d="M137,82.95v57.558a3.039,3.039,0,0,1-3.038,3.038H59.034A3.039,3.039,0,0,1,56,140.508V82.95a3.039,3.039,0,0,1,3.038-3.038h74.925A3.039,3.039,0,0,1,137,82.95Z" transform="translate(-54.987 -70.875)" opacity="0.1" fill="url(#linear-gradient)"/>
  <path id="Path_210" data-name="Path 210" d="M137,103.95v57.558a3.039,3.039,0,0,1-3.038,3.038H59.034A3.039,3.039,0,0,1,56,161.508V103.95a3.039,3.039,0,0,1,3.038-3.038h74.925A3.039,3.039,0,0,1,137,103.95Z" transform="translate(-54.987 -87.623)" fill="#fff"/>
  <path id="Path_211" data-name="Path 211" d="M92.436,149.084h66.241v21.9H92.436Z" transform="translate(-84.045 -126.041)" fill="url(#linear-gradient-2)"/>
  <path id="Path_212" data-name="Path 212" d="M137,110.667V103.95a3.038,3.038,0,0,0-3.038-3.038H59.034A3.038,3.038,0,0,0,56,103.951v6.717Z" transform="translate(-54.987 -87.624)" fill="#fff"/>
  <path id="Path_213" data-name="Path 213" d="M106.359,221.12H89.567a.754.754,0,0,1-.754-.754V206.843a.754.754,0,0,1,.754-.754h16.791a.754.754,0,0,1,.754.754v13.522a.754.754,0,0,1-.754.754Z" transform="translate(-81.156 -171.502)" fill="#fff"/>
  <path id="Path_214" data-name="Path 214" d="M110.106,308.444H96.621a1.037,1.037,0,1,1,0-2.075h13.484a1.037,1.037,0,1,1,0,2.074Z" transform="translate(-86.555 -251.476)" fill="url(#linear-gradient)"/>
  <path id="Path_215" data-name="Path 215" d="M228.359,221.12H211.567a.754.754,0,0,1-.754-.754V206.843a.754.754,0,0,1,.754-.754h16.791a.754.754,0,0,1,.754.754v13.522a.754.754,0,0,1-.754.754Z" transform="translate(-178.452 -171.502)" fill="#fff"/>
  <path id="Path_216" data-name="Path 216" d="M232.106,308.444H218.621a1.037,1.037,0,1,1,0-2.075h13.484a1.037,1.037,0,1,1,0,2.074Z" transform="translate(-183.852 -251.476)" fill="url(#linear-gradient)"/>
  <path id="Path_217" data-name="Path 217" d="M350.359,221.12H333.568a.754.754,0,0,1-.754-.754V206.843a.754.754,0,0,1,.754-.754h16.791a.754.754,0,0,1,.754.754v13.522a.754.754,0,0,1-.754.754Z" transform="translate(-275.748 -171.502)" fill="#fff"/>
  <g id="Group_30" data-name="Group 30" transform="translate(56.053 33.574)">
    <path id="Path_218" data-name="Path 218" d="M354.106,308.444H340.621a1.037,1.037,0,0,1,0-2.075h13.484a1.037,1.037,0,0,1,0,2.074Z" transform="translate(-337.201 -285.051)" fill="url(#linear-gradient)"/>
    <path id="Path_219" data-name="Path 219" d="M346.374,201.088h-16.8a1.774,1.774,0,0,0-1.767,1.767v13.522a1.774,1.774,0,0,0,1.767,1.767h16.8a1.774,1.774,0,0,0,1.767-1.767V202.855A1.774,1.774,0,0,0,346.374,201.088Zm-.259,7.513h-10.03v-5.49h10.027Zm-16.279-5.49h4.224v13.005h-4.223Zm6.248,13.005v-5.489h10.027v5.49Z" transform="translate(-327.812 -201.088)" fill="url(#linear-gradient)"/>
    <path id="Path_220" data-name="Path 220" d="M364.815,325.37h-6.193a1.037,1.037,0,0,0,0,2.075h6.193a1.037,1.037,0,1,0,0-2.075Z" transform="translate(-351.556 -300.204)" fill="url(#linear-gradient)"/>
  </g>
  <path id="Path_221" data-name="Path 221" d="M117.922,363.553h-9.315a.607.607,0,0,1-.607-.607v-3.375a.607.607,0,0,1,.607-.607h9.315a.607.607,0,0,1,.607.607v3.375A.607.607,0,0,1,117.922,363.553Z" transform="translate(-96.458 -293.421)" fill="url(#linear-gradient-2)"/>
  <path id="Path_222" data-name="Path 222" d="M240.979,363.553h-9.314a.607.607,0,0,1-.607-.607v-3.375a.607.607,0,0,1,.607-.607h9.314a.607.607,0,0,1,.607.607v3.375A.607.607,0,0,1,240.979,363.553Z" transform="translate(-194.596 -293.421)" fill="url(#linear-gradient-2)"/>
  <path id="Path_223" data-name="Path 223" d="M364.037,363.553h-9.311a.607.607,0,0,1-.607-.607v-3.375a.607.607,0,0,1,.607-.607h9.315a.607.607,0,0,1,.607.607v3.375a.607.607,0,0,1-.611.607Z" transform="translate(-292.736 -293.421)" fill="url(#linear-gradient-2)"/>
  <path id="Path_224" data-name="Path 224" d="M257.115,379.869l6.336,17.05a.9.9,0,0,0,1.626.126l3.6-6.424a.9.9,0,0,1,.344-.344l6.424-3.6a.9.9,0,0,0-.126-1.626l-17.05-6.336a.9.9,0,0,0-1.155,1.155Z" transform="translate(-215.332 -309.125)" fill="#fff"/>
  <g id="Group_31" data-name="Group 31" transform="translate(0 12.277)">
    <path id="Path_225" data-name="Path 225" d="M89.082,120.942v.029a1.012,1.012,0,1,0,2.024,0v-.029a1.012,1.012,0,0,0-2.024,0Z" transform="translate(-81.37 -115.062)" fill="url(#linear-gradient)"/>
    <path id="Path_226" data-name="Path 226" d="M108.407,120.942v.029a1.012,1.012,0,1,0,2.024,0v-.029a1.012,1.012,0,1,0-2.024,0Z" transform="translate(-96.782 -115.062)" fill="url(#linear-gradient)"/>
    <path id="Path_227" data-name="Path 227" d="M127.731,120.942v.029a1.012,1.012,0,0,0,2.024,0v-.029a1.012,1.012,0,1,0-2.024,0Z" transform="translate(-112.194 -115.062)" fill="url(#linear-gradient)"/>
    <path id="Path_228" data-name="Path 228" d="M129.972,95.912H55.047A4.054,4.054,0,0,0,51,99.962v6.717a1.012,1.012,0,0,0,1.012,1.012h74.045a1.012,1.012,0,1,0,0-2.024H53.024v-5.7a2.028,2.028,0,0,1,2.024-2.024h74.925A2.028,2.028,0,0,1,132,99.962V157.52a2.028,2.028,0,0,1-2.024,2.024H112.382a1.889,1.889,0,0,0-1.044-.939l-17.05-6.336a1.911,1.911,0,0,0-2.456,2.456l1.789,4.814H55.05a2.028,2.028,0,0,1-2.024-2.024V112.256a1.012,1.012,0,1,0-2.024,0V157.52a4.054,4.054,0,0,0,4.05,4.05H94.375l3.8,10.212a1.892,1.892,0,0,0,1.644,1.24c.051,0,.1.006.153.006a1.89,1.89,0,0,0,1.661-.977l3.586-6.4,6.4-3.586a1.917,1.917,0,0,0,.578-.5h17.784a4.054,4.054,0,0,0,4.05-4.05V99.962a4.054,4.054,0,0,0-4.05-4.05ZM104.2,163.9a1.91,1.91,0,0,0-.73.73l-3.48,6.209-6.163-16.586,16.586,6.163Z" transform="translate(-51 -95.912)" fill="url(#linear-gradient)"/>
  </g>
  <path id="Path_229" data-name="Path 229" d="M232.3,443.1a1.012,1.012,0,0,1-1.012-1.012,1.22,1.22,0,0,0-1.218-1.218,1.012,1.012,0,0,1,0-2.024,1.22,1.22,0,0,0,1.218-1.219,1.012,1.012,0,1,1,2.024,0,1.22,1.22,0,0,0,1.218,1.219,1.012,1.012,0,1,1,0,2.024,1.22,1.22,0,0,0-1.218,1.218A1.012,1.012,0,0,1,232.3,443.1Z" transform="translate(-193.001 -355.347)" fill="url(#linear-gradient)"/>
  <path id="Path_230" data-name="Path 230" d="M102.374,201.088h-16.8a1.774,1.774,0,0,0-1.767,1.767v13.522a1.774,1.774,0,0,0,1.767,1.767h16.8a1.774,1.774,0,0,0,1.767-1.767V202.855a1.774,1.774,0,0,0-1.767-1.767Zm-.259,2.024v3.365H85.836v-3.365ZM85.836,208.5H96.909v7.618H85.836Zm13.1,7.618V208.5h3.178v7.618Z" transform="translate(-77.168 -167.514)" fill="url(#linear-gradient)"/>
  <path id="Path_231" data-name="Path 231" d="M120.815,325.37h-6.193a1.037,1.037,0,0,0,0,2.075h6.193a1.037,1.037,0,1,0,0-2.075Z" transform="translate(-100.911 -266.63)" fill="url(#linear-gradient)"/>
  <path id="Path_232" data-name="Path 232" d="M221.244,55.067l-2.227-2.227a1.012,1.012,0,0,0-1.432,0l-2.227,2.227a1.012,1.012,0,0,0,0,1.432l2.227,2.226a1.012,1.012,0,0,0,1.432,0l2.227-2.226A1.012,1.012,0,0,0,221.244,55.067Zm-2.943,1.51-.794-.794.794-.794.794.794Z" transform="translate(-181.841 -49.049)" fill="url(#linear-gradient)"/>
  <path id="Path_233" data-name="Path 233" d="M224.374,201.088h-16.8a1.774,1.774,0,0,0-1.767,1.767v13.522a1.774,1.774,0,0,0,1.767,1.767h16.8a1.774,1.774,0,0,0,1.767-1.767V202.855A1.774,1.774,0,0,0,224.374,201.088Zm-.259,7.82h-5.3v-5.795h5.3v5.795Zm-7.328-5.795v5.795h-8.947v-5.795Zm-8.947,7.82h4.492v5.185h-4.492Zm6.516,5.185v-5.185h9.758v5.185Z" transform="translate(-174.463 -167.514)" fill="url(#linear-gradient)"/>
  <path id="Path_234" data-name="Path 234" d="M242.815,325.37h-6.193a1.037,1.037,0,0,0,0,2.075h6.193a1.037,1.037,0,1,0,0-2.075Z" transform="translate(-198.207 -266.63)" fill="url(#linear-gradient)"/>
  <path id="Path_235" data-name="Path 235" d="M161.871,37.493a1.22,1.22,0,0,1-1.218-1.218,1.012,1.012,0,0,0-2.024,0,1.22,1.22,0,0,1-1.219,1.218,1.012,1.012,0,1,0,0,2.024,1.22,1.22,0,0,1,1.219,1.218,1.012,1.012,0,0,0,2.024,0,1.22,1.22,0,0,1,1.218-1.218,1.012,1.012,0,0,0,0-2.024Z" transform="translate(-135.056 -35.263)" fill="url(#linear-gradient)"/>
  <path id="Path_236" data-name="Path 236" d="M343.4,55.067l-2.231-2.227a1.012,1.012,0,0,0-1.432,0l-2.221,2.227a1.012,1.012,0,0,0,0,1.432l2.227,2.226a1.012,1.012,0,0,0,1.432,0L343.4,56.5a1.012,1.012,0,0,0,0-1.432Zm-2.942,1.51-.794-.794.794-.794.794.794Z" transform="translate(-279.258 -49.049)" fill="url(#linear-gradient)"/>
</svg>
