<svg id="Group_9" data-name="Group 9" xmlns="http://www.w3.org/2000/svg" xmlns:xlink="http://www.w3.org/1999/xlink" width="92.725" height="100.068" viewBox="0 0 92.725 100.068">
  <defs>
    <linearGradient id="linear-gradient" x1="0.5" x2="0.5" y2="1" gradientUnits="objectBoundingBox">
      <stop offset="0" stop-color="#62cbac"/>
      <stop offset="1" stop-color="#00040e"/>
    </linearGradient>
  </defs>
  <path id="Path_84" data-name="Path 84" d="M146.455,76.71v57.5a3.394,3.394,0,0,1-3.394,3.394H59.394A3.394,3.394,0,0,1,56,134.209V76.71a3.394,3.394,0,0,1,3.394-3.394h83.667A3.394,3.394,0,0,1,146.455,76.71Z" transform="translate(-54.87 -64.597)" opacity="0.1" fill="url(#linear-gradient)"/>
  <path id="Path_85" data-name="Path 85" d="M306.942,42.007a1.13,1.13,0,0,1-.8-.331l-2.492-2.492a1.13,1.13,0,0,1,0-1.6l2.492-2.492a1.13,1.13,0,0,1,1.6,0l2.485,2.492a1.13,1.13,0,0,1,0,1.6l-2.492,2.492A1.132,1.132,0,0,1,306.942,42.007Zm-.885-3.623.885.885.885-.885-.885-.885Z" transform="translate(-246.257 -34.76)" fill="url(#linear-gradient)"/>
  <path id="Path_86" data-name="Path 86" d="M369.655,411.691a1.13,1.13,0,0,1-.8-.33l-2.492-2.492a1.13,1.13,0,0,1,0-1.6l2.492-2.492a1.13,1.13,0,0,1,1.6,0l2.492,2.492a1.13,1.13,0,0,1,0,1.6l-2.492,2.492A1.131,1.131,0,0,1,369.655,411.691Zm-.885-3.623.885.885.885-.885-.885-.885Z" transform="translate(-294.788 -320.839)" fill="url(#linear-gradient)"/>
  <path id="Path_87" data-name="Path 87" d="M94.287,452.449a1.13,1.13,0,0,1-1.13-1.13,1.362,1.362,0,0,0-1.361-1.361,1.131,1.131,0,0,1,0-2.262,1.363,1.363,0,0,0,1.361-1.36,1.131,1.131,0,1,1,2.262,0,1.362,1.362,0,0,0,1.361,1.36,1.131,1.131,0,0,1,0,2.262,1.362,1.362,0,0,0-1.361,1.36,1.13,1.13,0,0,1-1.132,1.13Z" transform="translate(-81.694 -352.381)" fill="url(#linear-gradient)"/>
  <path id="Path_88" data-name="Path 88" d="M137.62,406.051a1.13,1.13,0,0,1-1.13-1.13,1.362,1.362,0,0,0-1.361-1.361,1.131,1.131,0,0,1,0-2.262,1.362,1.362,0,0,0,1.361-1.361,1.131,1.131,0,0,1,2.262,0,1.362,1.362,0,0,0,1.361,1.361,1.131,1.131,0,0,1,0,2.262,1.363,1.363,0,0,0-1.361,1.36,1.13,1.13,0,0,1-1.132,1.13Z" transform="translate(-115.228 -316.474)" fill="url(#linear-gradient)"/>
  <path id="Path_89" data-name="Path 89" d="M224.94,381.7H199.289l3.342-13.253,1.787-7.083h15.4l1.787,7.083Z" transform="translate(-165.754 -287.507)" fill="#fff"/>
  <path id="Path_90" data-name="Path 90" d="M221.07,393.339H195.418a1.13,1.13,0,0,1-1.1-1.408l4.037-16a1.131,1.131,0,0,1,2.193.553l-3.689,14.591h22.75L215.9,376.355a1.131,1.131,0,0,1,2.193-.553l4.07,16.128a1.13,1.13,0,0,1-1.1,1.408Z" transform="translate(-161.883 -298.012)" fill="url(#linear-gradient)"/>
  <path id="Path_91" data-name="Path 91" d="M146.455,97.71v57.5a3.394,3.394,0,0,1-3.394,3.394H59.394A3.394,3.394,0,0,1,56,155.209V97.71a3.394,3.394,0,0,1,3.394-3.394h83.667a3.394,3.394,0,0,1,3.394,3.394Z" transform="translate(-54.87 -80.847)" fill="#fff"/>
  <path id="Path_92" data-name="Path 92" d="M374.449,94.317H355V158.6h19.449a3.394,3.394,0,0,0,3.394-3.394v-57.5A3.394,3.394,0,0,0,374.449,94.317Z" transform="translate(-286.25 -80.847)" fill="#fff"/>
  <path id="Path_93" data-name="Path 93" d="M320.334,167.106l-1.623-5.711a1.133,1.133,0,0,0-1.087-.823H312.1a1.133,1.133,0,0,0-1.088.823l-1.623,5.711a22.724,22.724,0,0,0-6.379,2.641l-5.188-2.888a1.13,1.13,0,0,0-1.35.187l-3.9,3.9a1.133,1.133,0,0,0-.19,1.35l2.891,5.188a22.744,22.744,0,0,0-2.644,6.378l-5.711,1.623a1.129,1.129,0,0,0-.82,1.088V192.1a1.133,1.133,0,0,0,.82,1.088l5.711,1.623a22.646,22.646,0,0,0,1.614,4.48h16.477a10.781,10.781,0,1,1,13.8-14.756V168.582A22.752,22.752,0,0,0,320.334,167.106Z" transform="translate(-232.932 -132.124)" fill="#fff"/>
  <g id="Group_8" data-name="Group 8" transform="translate(52.037 27.325)">
    <path id="Path_94" data-name="Path 94" d="M312.507,196.56h-22.84l-.308-.637a23.868,23.868,0,0,1-1.529-4.062l-5.088-1.449a2.275,2.275,0,0,1-1.642-2.175v-5.519a2.27,2.27,0,0,1,1.642-2.175l5.088-1.451a23.854,23.854,0,0,1,2.272-5.482l-2.575-4.623a2.278,2.278,0,0,1,.378-2.7l3.9-3.9a2.269,2.269,0,0,1,2.7-.375l4.622,2.572a23.835,23.835,0,0,1,5.485-2.271l1.449-5.088a2.271,2.271,0,0,1,2.175-1.644h5.519a2.271,2.271,0,0,1,2.175,1.645l1.449,5.088a23.882,23.882,0,0,1,3.751,1.377l.654.3v21.494l-2.143-4.3a9.65,9.65,0,1,0-12.352,13.2ZM291.1,194.3h11.889a11.917,11.917,0,1,1,16.536-17.152v-11.7a21.767,21.767,0,0,0-3.323-1.105l-.638-.156-1.806-6.345h-5.519l-1.806,6.345-.639.156a21.577,21.577,0,0,0-6.062,2.509l-.562.341-5.755-3.208-3.9,3.9,3.208,5.762-.341.562a21.591,21.591,0,0,0-2.509,6.06l-.156.637-6.345,1.809v5.519l6.345,1.806.156.639a21.5,21.5,0,0,0,1.238,3.618Z" transform="translate(-281.1 -155.578)" fill="url(#linear-gradient)"/>
  </g>
  <path id="Path_95" data-name="Path 95" d="M146.455,105.21v-7.5a3.394,3.394,0,0,0-3.394-3.394H59.394A3.394,3.394,0,0,0,56,97.713v7.5Z" transform="translate(-54.87 -80.85)" fill="#fff"/>
  <path id="Path_96" data-name="Path 96" d="M142.59,139.753H52.135a1.131,1.131,0,0,1,0-2.262H142.59a1.131,1.131,0,0,1,0,2.262Z" transform="translate(-50.998 -114.256)" fill="url(#linear-gradient)"/>
  <path id="Path_97" data-name="Path 97" d="M56,328.179v8a3.394,3.394,0,0,0,3.394,3.394h83.667a3.394,3.394,0,0,0,3.394-3.394v-8Z" transform="translate(-54.868 -261.821)" fill="#fff"/>
  <g id="Group_10" data-name="Group 10" transform="translate(0 12.34)">
    <g id="Group_9-2" data-name="Group 9" transform="translate(0 0)">
      <path id="Path_98" data-name="Path 98" d="M167.2,325.44H84.089a1.131,1.131,0,0,1,0-2.262H167.2a1.131,1.131,0,0,1,0,2.262Z" transform="translate(-75.731 -270.291)" fill="url(#linear-gradient)"/>
      <path id="Path_99" data-name="Path 99" d="M210.541,448.529H176.2a1.131,1.131,0,0,1,0-2.262h34.345a1.131,1.131,0,1,1,0,2.262Z" transform="translate(-147.009 -365.545)" fill="url(#linear-gradient)"/>
      <path id="Path_100" data-name="Path 100" d="M90.212,115.627a1.13,1.13,0,0,1-1.13-1.13v-.032a1.131,1.131,0,1,1,2.262,0v.032a1.13,1.13,0,0,1-1.132,1.13Z" transform="translate(-80.47 -107.903)" fill="url(#linear-gradient)"/>
      <path id="Path_101" data-name="Path 101" d="M109.537,115.627a1.13,1.13,0,0,1-1.13-1.13v-.032a1.131,1.131,0,1,1,2.262,0v.032a1.13,1.13,0,0,1-1.132,1.13Z" transform="translate(-95.425 -107.903)" fill="url(#linear-gradient)"/>
      <path id="Path_102" data-name="Path 102" d="M128.864,115.627a1.13,1.13,0,0,1-1.13-1.13v-.032a1.131,1.131,0,0,1,2.262,0v.032a1.13,1.13,0,0,1-1.132,1.13Z" transform="translate(-110.376 -107.903)" fill="url(#linear-gradient)"/>
      <path id="Path_103" data-name="Path 103" d="M139.2,155.864H55.523A4.529,4.529,0,0,1,51,151.341v-57.5a4.529,4.529,0,0,1,4.523-4.523H139.2a4.529,4.529,0,0,1,4.523,4.523v7.5a1.131,1.131,0,0,1-2.262,0v-7.5a2.264,2.264,0,0,0-2.262-2.262H55.523a2.264,2.264,0,0,0-2.262,2.262v57.5a2.264,2.264,0,0,0,2.262,2.262H139.2a2.264,2.264,0,0,0,2.262-2.262V107.573a1.131,1.131,0,1,1,2.262,0v43.768A4.529,4.529,0,0,1,139.2,155.864Z" transform="translate(-51 -89.32)" fill="url(#linear-gradient)"/>
    </g>
    <path id="Path_104" data-name="Path 104" d="M126.813,266.52H89.106a1.133,1.133,0,1,1,0-2.265h37.709a1.133,1.133,0,1,1,0,2.265Z" transform="translate(-79.614 -224.694)" fill="url(#linear-gradient)"/>
    <path id="Path_105" data-name="Path 105" d="M113.245,224.53H89.106a1.133,1.133,0,1,1,0-2.265h24.14a1.133,1.133,0,0,1,0,2.265Z" transform="translate(-79.614 -192.197)" fill="url(#linear-gradient)"/>
    <path id="Path_106" data-name="Path 106" d="M126.787,286.386H89.079a1.133,1.133,0,0,1,0-2.265h37.709a1.133,1.133,0,1,1,0,2.265Z" transform="translate(-79.588 -240.067)" fill="url(#linear-gradient)"/>
    <path id="Path_107" data-name="Path 107" d="M92.935,176.1a1.127,1.127,0,0,1-.8-.331l-2.721-2.721a1.13,1.13,0,0,1,0-1.6l2.721-2.721a1.131,1.131,0,1,1,1.6,1.6l-1.918,1.918,1.918,1.918a1.13,1.13,0,0,1-.8,1.93Z" transform="translate(-80.47 -150.51)" fill="url(#linear-gradient)"/>
    <path id="Path_108" data-name="Path 108" d="M149.011,176.1a1.13,1.13,0,0,1-.8-1.93l1.918-1.918-1.918-1.918a1.131,1.131,0,0,1,1.6-1.6l2.721,2.721a1.13,1.13,0,0,1,0,1.6l-2.721,2.721a1.126,1.126,0,0,1-.8.325Z" transform="translate(-125.97 -150.508)" fill="url(#linear-gradient)"/>
    <path id="Path_109" data-name="Path 109" d="M118.831,176.1a1.132,1.132,0,0,1-.984-1.687l3.074-5.444a1.131,1.131,0,0,1,1.97,1.113l-3.074,5.444a1.132,1.132,0,0,1-.986.575Z" transform="translate(-102.616 -150.508)" fill="url(#linear-gradient)"/>
  </g>
  <path id="Path_110" data-name="Path 110" d="M364.347,242.393h-3.618a.679.679,0,0,1-.679-.679V227.95a.679.679,0,0,1,.679-.679h3.618a.679.679,0,0,1,.679.679v13.765a.679.679,0,0,1-.679.679Z" transform="translate(-290.158 -183.733)" fill="url(#linear-gradient)"/>
  <path id="Path_111" data-name="Path 111" d="M331.633,260.353h-3.614a.679.679,0,0,1-.679-.679v-8.516a.679.679,0,0,1,.679-.679h3.618a.679.679,0,0,1,.679.679v8.516a.679.679,0,0,1-.683.679Z" transform="translate(-264.842 -201.694)" fill="url(#linear-gradient)"/>
  <path id="Path_112" data-name="Path 112" d="M397.06,228.871h-3.618a.679.679,0,0,1-.679-.679V210.476a.679.679,0,0,1,.679-.679h3.618a.679.679,0,0,1,.679.679v17.716A.679.679,0,0,1,397.06,228.871Z" transform="translate(-315.473 -170.211)" fill="url(#linear-gradient)"/>
  <circle id="Ellipse_7" data-name="Ellipse 7" cx="1.265" cy="1.265" r="1.265" transform="translate(57.024 30.222)" fill="url(#linear-gradient)"/>
  <circle id="Ellipse_8" data-name="Ellipse 8" cx="1.265" cy="1.265" r="1.265" transform="translate(53.199 30.222)" fill="url(#linear-gradient)"/>
  <circle id="Ellipse_9" data-name="Ellipse 9" cx="1.265" cy="1.265" r="1.265" transform="translate(49.375 30.222)" fill="url(#linear-gradient)"/>
</svg>
